<svg width="720" height="898" viewBox="0 0 720 898" fill="none" xmlns="http://www.w3.org/2000/svg">
<g clip-path="url(#clip0)">
<mask id="mask0" mask-type="alpha" maskUnits="userSpaceOnUse" x="0" y="0" width="720" height="900">
<path d="M720 0H0V900H720V0Z" fill="white"/>
</mask>
<g mask="url(#mask0)">
<path d="M720 0H0V900H720V0Z" fill="#EEEEFF"/>
<path fill-rule="evenodd" clip-rule="evenodd" d="M289 386H326C326.552 386 327 386.448 327 387V398H289C288.448 398 288 397.552 288 397V387C288 386.448 288.448 386 289 386Z" fill="#E1E1F8"/>
<path fill-rule="evenodd" clip-rule="evenodd" d="M308 398H346C346.552 398 347 398.448 347 399V409C347 409.552 346.552 410 346 410H309C308.448 410 308 409.552 308 409V398Z" fill="#D7D7F3"/>
<path fill-rule="evenodd" clip-rule="evenodd" d="M123 649H161V637H123C122.448 637 122 637.448 122 638V648C122 648.552 122.448 649 123 649Z" fill="#D7D7F3"/>
<path fill-rule="evenodd" clip-rule="evenodd" d="M142 637H180C180.552 637 181 636.552 181 636V626C181 625.448 180.552 625 180 625H143C142.448 625 142 625.448 142 626V637Z" fill="#E1E1F8"/>
<path fill-rule="evenodd" clip-rule="evenodd" d="M658 492H621C620.448 492 620 492.448 620 493V504H658C658.552 504 659 503.552 659 503V493C659 492.448 658.552 492 658 492Z" fill="#D7D7F3"/>
<path fill-rule="evenodd" clip-rule="evenodd" d="M639 504H601C600.448 504 600 504.448 600 505V515C600 515.552 600.448 516 601 516H638C638.552 516 639 515.552 639 515V504Z" fill="#E1E1F8"/>
<path fill-rule="evenodd" clip-rule="evenodd" d="M608 339H645C645.552 339 646 339.448 646 340V351H608C607.448 351 607 350.552 607 350V340C607 339.448 607.448 339 608 339Z" fill="#E1E1F8"/>
<path fill-rule="evenodd" clip-rule="evenodd" d="M102 464H140C140.552 464 141 464.448 141 465V476H102V464Z" fill="#E1E1F8"/>
<path fill-rule="evenodd" clip-rule="evenodd" d="M256 844H294C294.552 844 295 844.448 295 845V856H256V844Z" fill="#D7D7F3"/>
<path fill-rule="evenodd" clip-rule="evenodd" d="M280 508.252H289.854V899.725H280V508.252Z" fill="#5E5E93"/>
<path fill-rule="evenodd" clip-rule="evenodd" d="M413.573 508.252H423.427V899.725H413.573V508.252Z" fill="#5E5E93"/>
<mask id="mask1" mask-type="alpha" maskUnits="userSpaceOnUse" x="289" y="742" width="125" height="79">
<path d="M413.573 742.065H289.854V820.895H413.573V742.065Z" fill="white"/>
</mask>
<g mask="url(#mask1)">
<path d="M413.573 742.065H289.854V820.895H413.573V742.065Z" fill="#5E5E93"/>
<path d="M323.445 828.464C317.409 840.839 298.345 843.849 280.884 835.332C263.422 826.816 254.057 809.94 260.093 797.565C266.129 785.189 285.193 782.179 302.654 790.696C320.116 799.213 329.481 816.088 323.445 828.464ZM322.367 827.938C328.064 816.257 319.06 800.033 302.128 791.775C285.197 783.517 266.868 786.41 261.171 798.091C255.474 809.771 264.478 825.996 281.41 834.254C298.341 842.512 316.67 839.618 322.367 827.938Z" fill="white" fill-opacity="0.5"/>
<path d="M279.584 779.092C289.714 769.971 308.244 774.144 321.227 788.238L321.817 788.882C324.754 791.982 329.262 793.265 336.842 793.871L338.185 793.969C339.418 794.052 341.49 794.187 342.455 794.257L343.634 794.354C345.175 794.493 346.379 794.657 347.429 794.885C350.608 795.574 352.317 796.9 352.416 799.255C352.615 804.016 345.527 813.173 328.383 829.887L326.764 831.459L325.172 832.991C308.247 849.19 298.853 855.367 294.119 853.826C291.88 853.098 290.743 850.826 290.286 847.009C290.118 845.6 290.038 843.985 290.019 841.939L290.015 841.208L290.065 834.605L290.064 833.429C290.037 827.492 289.635 823.689 288.491 820.467C287.904 818.813 287.133 817.444 286.155 816.357C272.515 801.208 269.745 787.951 279.584 779.092ZM280.387 779.984C271.17 788.283 273.791 800.833 287.047 815.555C288.138 816.766 288.985 818.271 289.622 820.065C290.862 823.557 291.262 827.606 291.266 834.012L291.224 839.274L291.219 841.924L291.233 842.893C291.266 844.451 291.343 845.734 291.478 846.867C291.884 850.266 292.824 852.143 294.491 852.685C298.634 854.033 308.017 847.805 324.887 831.601L326.466 830.077C344.071 813.006 351.398 803.649 351.217 799.306C351.147 797.625 349.883 796.645 347.174 796.058C346.179 795.842 345.017 795.683 343.517 795.548L342.664 795.476C341.816 795.41 338.707 795.209 337.549 795.128L336.225 795.024L335.19 794.929C328.244 794.247 323.928 792.861 320.943 789.705L320.348 789.054C307.762 775.389 289.948 771.375 280.387 779.984Z" fill="white" fill-opacity="0.5"/>
</g>
<path d="M352.5 785C354.433 785 356 783.433 356 781.5C356 779.567 354.433 778 352.5 778C350.567 778 349 779.567 349 781.5C349 783.433 350.567 785 352.5 785Z" fill="white"/>
<path d="M413.573 820.895H289.854V899.725H413.573V820.895Z" fill="#5E5E93"/>
<path fill-rule="evenodd" clip-rule="evenodd" d="M289.953 820.536L413.573 820.985V830.939L289.953 823.025V820.536Z" fill="#414173"/>
<path fill-rule="evenodd" clip-rule="evenodd" d="M289.953 741.12L413.573 741.569V751.522L289.953 743.608V741.12Z" fill="#414173"/>
<path d="M352.5 864C354.433 864 356 862.433 356 860.5C356 858.567 354.433 857 352.5 857C350.567 857 349 858.567 349 860.5C349 862.433 350.567 864 352.5 864Z" fill="white"/>
<path d="M413.573 639.148H289.854V644.622H413.573V639.148Z" fill="#5E5E93"/>
<path fill-rule="evenodd" clip-rule="evenodd" d="M328.921 635.947V627.985C328.921 626.885 328.029 625.994 326.93 625.994H306.028V637.938H326.93C328.029 637.938 328.921 637.047 328.921 635.947Z" fill="white"/>
<path fill-rule="evenodd" clip-rule="evenodd" d="M361 626.428C361 625.412 360.176 624.589 359.161 624.589H305.262C304.712 624.589 304.266 625.034 304.266 625.584C304.266 626.134 304.712 626.579 305.262 626.579H323.675C324.725 626.579 325.584 627.391 325.66 628.422L325.666 628.57V635.537C325.666 636.587 324.854 637.447 323.824 637.523L323.675 637.528H305.262C304.712 637.528 304.266 637.974 304.266 638.523C304.266 639.073 304.712 639.519 305.262 639.519H359.161C360.176 639.519 361 638.695 361 637.679V626.428Z" fill="#4C4C83"/>
<path d="M351.047 632.054C351.047 630.679 352.161 629.565 353.535 629.565C354.909 629.565 356.023 630.679 356.023 632.054C356.023 633.428 354.909 634.542 353.535 634.542C352.161 634.542 351.047 633.428 351.047 632.054Z" fill="#FFC377"/>
<path d="M347.065 624.589V639.519H344.079V624.589H347.065Z" fill="#FFC377"/>
<path fill-rule="evenodd" clip-rule="evenodd" d="M319.196 643.5V633.547H313.224V643.5L316.21 641.012L319.196 643.5Z" fill="#FFC377"/>
<path fill-rule="evenodd" clip-rule="evenodd" d="M340.944 738.583V730.62C340.944 729.521 341.835 728.629 342.935 728.629H363.836V740.573H342.935C341.835 740.573 340.944 739.682 340.944 738.583Z" fill="white"/>
<path fill-rule="evenodd" clip-rule="evenodd" d="M308.865 729.064C308.865 728.048 309.688 727.224 310.704 727.224H364.603C365.153 727.224 365.598 727.67 365.598 728.22C365.598 728.769 365.153 729.215 364.603 729.215H346.189C345.14 729.215 344.28 730.027 344.204 731.057L344.199 731.206V738.173C344.199 739.222 345.011 740.082 346.041 740.158L346.189 740.164H364.603C365.153 740.164 365.598 740.609 365.598 741.159C365.598 741.709 365.153 742.154 364.603 742.154H310.704C309.688 742.154 308.865 741.331 308.865 740.315V729.064Z" fill="#4C4C83"/>
<path d="M318.818 734.689C318.818 733.315 317.704 732.201 316.33 732.201C314.955 732.201 313.841 733.315 313.841 734.689C313.841 736.064 314.955 737.178 316.33 737.178C317.704 737.178 318.818 736.064 318.818 734.689Z" fill="#13C99B"/>
<path d="M322.799 727.224V742.154H325.785V727.224H322.799Z" fill="#13C99B"/>
<path fill-rule="evenodd" clip-rule="evenodd" d="M350.668 746.136V736.182H356.64V746.136L353.654 743.647L350.668 746.136Z" fill="#13C99B"/>
<path d="M413.573 536.231H289.854V541.705H413.573V536.231Z" fill="#5E5E93"/>
<path d="M397.424 598.118L381.919 543.372L366.415 598.118H397.424ZM381.919 536.271L399.983 600.053H363.856L381.919 536.271Z" fill="#5E5E93"/>
<mask id="mask2" mask-type="alpha" maskUnits="userSpaceOnUse" x="373" y="563" width="19" height="33">
<path d="M382.566 595.963C387.567 595.963 391.62 592.037 391.62 587.194C391.62 584.073 388.799 576.173 383.155 563.494L383.155 563.494C383.011 563.169 382.629 563.023 382.304 563.167C382.158 563.232 382.042 563.349 381.977 563.494C376.334 576.173 373.512 584.073 373.512 587.194C373.512 592.037 377.566 595.963 382.566 595.963Z" fill="white"/>
</mask>
<g mask="url(#mask2)">
<path d="M382.566 595.963C387.567 595.963 391.62 592.037 391.62 587.194C391.62 584.073 388.799 576.173 383.155 563.494L383.155 563.494C383.011 563.169 382.629 563.023 382.304 563.167C382.158 563.232 382.042 563.349 381.977 563.494C376.334 576.173 373.512 584.073 373.512 587.194C373.512 592.037 377.566 595.963 382.566 595.963Z" fill="#13C99B"/>
</g>
<path fill-rule="evenodd" clip-rule="evenodd" d="M382.897 605.91C387.391 603.718 389.314 598.413 387.191 594.06C385.822 591.254 379.823 585.391 369.193 576.469L369.193 576.469C368.92 576.24 368.513 576.276 368.284 576.549C368.182 576.671 368.128 576.827 368.134 576.986C368.62 590.855 369.547 599.192 370.915 601.998C373.038 606.351 378.402 608.102 382.897 605.91Z" fill="#20D7A9"/>
<path fill-rule="evenodd" clip-rule="evenodd" d="M380.183 611.861C384.513 614.361 389.987 612.988 392.408 608.794C393.969 606.091 395.475 597.838 396.927 584.037L396.927 584.037C396.965 583.683 396.708 583.365 396.353 583.328C396.195 583.311 396.036 583.354 395.907 583.448C384.681 591.606 378.287 597.037 376.726 599.74C374.305 603.934 375.852 609.361 380.183 611.861Z" fill="#41F3C6"/>
<path fill-rule="evenodd" clip-rule="evenodd" d="M400.96 601.405C400.459 611.744 392.048 619.97 381.746 619.97C371.444 619.97 363.034 611.744 362.532 601.405H400.96Z" fill="#7F7FB9"/>
<path d="M401.4 598.262H362.045C360.709 598.262 359.626 599.345 359.626 600.681V600.723C359.626 602.059 360.709 603.142 362.045 603.142H401.4C402.736 603.142 403.819 602.059 403.819 600.723V600.681C403.819 599.345 402.736 598.262 401.4 598.262Z" fill="#5E5E93"/>
<path d="M382.021 544.084C384.495 544.084 386.5 542.079 386.5 539.605C386.5 537.131 384.495 535.126 382.021 535.126C379.547 535.126 377.542 537.131 377.542 539.605C377.542 542.079 379.547 544.084 382.021 544.084Z" fill="#5E5E93"/>
<path fill-rule="evenodd" clip-rule="evenodd" d="M648.336 444.8H798.58C800.427 444.8 801.925 446.297 801.925 448.144V666.999C801.925 668.846 800.427 670.343 798.58 670.343H649.68C647.833 670.343 646.336 668.846 646.336 666.999V446.8C646.336 445.695 647.231 444.8 648.336 444.8Z" fill="#5E5E93"/>
<mask id="mask3" mask-type="alpha" maskUnits="userSpaceOnUse" x="654" y="453" width="140" height="210">
<path d="M793.56 453.062H654.214V662.081H793.56V453.062Z" fill="white"/>
</mask>
<g mask="url(#mask3)">
<path d="M793.56 453.062H654.214V662.081H793.56V453.062Z" fill="white"/>
<path fill-rule="evenodd" clip-rule="evenodd" d="M696.8 482.202H763.36C759.303 479.772 754.85 478.556 750.002 478.556C742.729 478.556 736.656 476.885 731.97 474.335C727.284 471.784 717.466 469.075 706.349 474.335C700.972 476.879 697.789 479.501 696.8 482.202Z" fill="#EEEEFF"/>
<path fill-rule="evenodd" clip-rule="evenodd" d="M626.4 577.28H687.2C685.312 574.859 683.229 573.649 680.952 573.649C677.536 573.649 677.814 575.317 673.992 574.483C670.169 573.649 667.866 569.951 663.202 568.178C658.537 566.405 653.797 565.276 647.102 568.178C643.529 569.727 642.657 571.814 637.133 571.814C633.45 571.814 629.872 573.636 626.4 577.28Z" fill="#EEEEFF"/>
</g>
<path d="M793.56 523.323H651.355V526.669H793.56V523.323Z" fill="#5E5E93"/>
<path d="M793.56 593.492H651.355V596.838H793.56V593.492Z" fill="#5E5E93"/>
<path fill-rule="evenodd" clip-rule="evenodd" d="M-31.6557 332H118.589C119.693 332 120.589 332.895 120.589 334V557.543H-31.6557C-33.5027 557.543 -35 556.046 -35 554.199V335.344C-35 333.497 -33.5027 332 -31.6557 332Z" fill="#5E5E93"/>
<mask id="mask4" mask-type="alpha" maskUnits="userSpaceOnUse" x="-28" y="340" width="141" height="210">
<path d="M112.224 340.262H-27.1221V549.281H112.224V340.262Z" fill="white"/>
</mask>
<g mask="url(#mask4)">
<path d="M112.224 340.262H-27.1221V549.281H112.224V340.262Z" fill="white"/>
<path fill-rule="evenodd" clip-rule="evenodd" d="M-56.8903 369.402H9.66974C5.61235 366.972 1.15958 365.756 -3.68859 365.756C-10.9608 365.756 -17.0347 364.085 -21.7206 361.535C-26.4065 358.984 -36.224 356.275 -47.3409 361.535C-52.7178 364.079 -55.901 366.701 -56.8903 369.402Z" fill="white"/>
<path d="M90.824 398.401C99.3071 398.401 106.184 391.696 106.184 383.425C106.184 375.154 99.3071 368.449 90.824 368.449C82.3409 368.449 75.464 375.154 75.464 383.425C75.464 391.696 82.3409 398.401 90.824 398.401Z" fill="#FFC377"/>
<path fill-rule="evenodd" clip-rule="evenodd" d="M71.624 398.401H145.352C143.063 395.496 140.537 394.044 137.775 394.044C133.633 394.044 133.97 396.046 129.335 395.045C124.7 394.044 121.907 389.606 116.251 387.479C110.595 385.351 104.847 383.997 96.7286 387.479C92.3951 389.338 91.3382 391.843 84.6389 391.843C80.1727 391.843 75.8344 394.029 71.624 398.401Z" fill="#EEEEFF"/>
<path fill-rule="evenodd" clip-rule="evenodd" d="M51.784 465.729H-9.01599C-7.12795 463.309 -5.04526 462.098 -2.76793 462.098C0.648074 462.098 0.370016 463.766 4.19231 462.932C8.0146 462.098 10.3179 458.4 14.9823 456.627L15.5783 456.405C20.0537 454.765 24.6717 453.849 31.0815 456.627C34.5657 458.137 35.4814 460.16 40.6455 460.26L41.0512 460.264C44.7343 460.264 48.3119 462.086 51.784 465.729Z" fill="#EEEEFF"/>
</g>
<path fill-rule="evenodd" clip-rule="evenodd" d="M40.2849 336.548H43.6309V549.752H40.2849V336.548Z" fill="#5E5E93"/>
<path d="M112.224 410.523H-29.981V413.869H112.224V410.523Z" fill="#5E5E93"/>
<path d="M112.224 480.692H-29.981V484.038H112.224V480.692Z" fill="#5E5E93"/>
<mask id="mask5" mask-type="alpha" maskUnits="userSpaceOnUse" x="466" y="723" width="98" height="65">
<path d="M470.406 723.094H563.497V787.193H466.95L470.406 723.094Z" fill="white"/>
</mask>
<g mask="url(#mask5)">
<path d="M470.406 723.094H563.497V787.193H466.95L470.406 723.094Z" fill="#5E5E93"/>
</g>
<path fill-rule="evenodd" clip-rule="evenodd" d="M588.79 633.912H738.472L735.892 791.373H546.776L562.494 657.305C564.058 643.967 575.361 633.912 588.79 633.912Z" fill="#8E8EC4"/>
<path d="M603.509 692.637C605.158 692.637 606.495 691.3 606.495 689.651C606.495 688.002 605.158 686.665 603.509 686.665C601.86 686.665 600.523 688.002 600.523 689.651C600.523 691.3 601.86 692.637 603.509 692.637Z" fill="white"/>
<path d="M658.252 692.637C659.901 692.637 661.238 691.3 661.238 689.651C661.238 688.002 659.901 686.665 658.252 686.665C656.603 686.665 655.266 688.002 655.266 689.651C655.266 691.3 656.603 692.637 658.252 692.637Z" fill="white"/>
<path fill-rule="evenodd" clip-rule="evenodd" d="M734.065 633.912H744.352V844.325H691.349L707.69 658.074C708.89 644.401 720.34 633.912 734.065 633.912Z" fill="#5E5E93"/>
<mask id="mask6" mask-type="alpha" maskUnits="userSpaceOnUse" x="547" y="730" width="72" height="72">
<path d="M553.339 749.074L583.509 731.656C589.221 728.358 596.526 730.315 599.824 736.028L617.243 766.197C620.541 771.91 618.583 779.214 612.871 782.513L582.701 799.931C576.989 803.229 569.684 801.272 566.386 795.559L548.968 765.39C545.669 759.677 547.627 752.372 553.339 749.074Z" fill="white"/>
</mask>
<g mask="url(#mask6)">
<path d="M553.339 749.074L583.509 731.656C589.221 728.358 596.526 730.315 599.824 736.028L617.243 766.197C620.541 771.91 618.583 779.214 612.871 782.513L582.701 799.931C576.989 803.229 569.684 801.272 566.386 795.559L548.968 765.39C545.669 759.677 547.627 752.372 553.339 749.074Z" fill="#FFC377"/>
<path opacity="0.626232" fill-rule="evenodd" clip-rule="evenodd" d="M631.004 758.394C631.33 758.114 631.656 757.835 631.982 757.556C632.283 757.298 632.83 757.438 633.026 757.759C633.258 758.14 633.143 758.533 632.822 758.808C632.496 759.087 632.17 759.367 631.844 759.646C631.543 759.904 630.996 759.764 630.8 759.443C630.568 759.062 630.683 758.669 631.004 758.394ZM622.609 755.71L622.639 755.606C622.973 754.645 623.889 753.892 624.913 753.834C625.32 753.81 625.708 753.997 625.788 754.439C625.854 754.805 625.589 755.297 625.183 755.32C624.637 755.352 624.224 755.624 624.048 756.132C623.728 757.051 622.319 756.525 622.639 755.606L622.609 755.71ZM610.72 756.469L610.749 756.365C611.084 755.404 612 754.652 613.023 754.593C613.43 754.57 613.818 754.756 613.898 755.199C613.965 755.564 613.699 756.056 613.294 756.08C612.748 756.111 612.335 756.384 612.158 756.891C611.839 757.811 610.43 757.285 610.749 756.365L610.72 756.469ZM596.262 772.561C596.067 772.186 596.108 771.778 596.466 771.512C596.768 771.288 597.327 771.363 597.509 771.715C597.707 772.096 597.905 772.477 598.102 772.858C598.297 773.233 598.257 773.641 597.898 773.907C597.596 774.132 597.037 774.056 596.855 773.704C596.657 773.323 596.459 772.942 596.262 772.561ZM600.614 743.764C600.953 742.791 601.924 742.112 602.935 742.054C603.902 741.999 604.016 743.506 603.049 743.561C602.516 743.592 602.141 743.916 601.961 744.435C601.827 744.821 601.283 744.942 600.952 744.777C600.551 744.577 600.48 744.151 600.614 743.764ZM597.328 759.563C597.666 758.59 598.638 757.911 599.648 757.853C600.615 757.798 600.73 759.305 599.763 759.36C599.229 759.391 598.855 759.715 598.674 760.234C598.54 760.62 597.997 760.741 597.666 760.576C597.265 760.377 597.193 759.95 597.328 759.563ZM589.138 794.943C589.464 794.664 589.79 794.385 590.116 794.106C590.417 793.847 590.963 793.987 591.159 794.308C591.392 794.689 591.277 795.082 590.956 795.358C590.629 795.637 590.303 795.916 589.977 796.195C589.676 796.453 589.13 796.314 588.934 795.992C588.701 795.611 588.817 795.218 589.138 794.943ZM592.681 749.746C592.16 748.928 593.407 748.08 593.928 748.901C594.364 749.59 595.073 749.995 595.892 749.965C596.86 749.928 596.973 751.435 596.006 751.472C594.663 751.522 593.407 750.892 592.681 749.746ZM589.498 774.554C589.824 774.274 590.15 773.995 590.476 773.716C590.777 773.458 591.324 773.597 591.52 773.919C591.752 774.3 591.637 774.693 591.316 774.968C590.99 775.247 590.664 775.527 590.338 775.806C590.037 776.064 589.49 775.924 589.294 775.603C589.062 775.222 589.177 774.829 589.498 774.554ZM588.659 764.557C588.984 764.278 589.311 763.999 589.637 763.72C589.938 763.462 590.484 763.602 590.68 763.923C590.913 764.303 590.798 764.697 590.476 764.972L589.498 765.809C589.197 766.067 588.651 765.928 588.455 765.607C588.222 765.225 588.338 764.832 588.659 764.557ZM590.602 737.982C590.082 737.164 591.329 736.316 591.85 737.137C592.286 737.826 592.994 738.231 593.814 738.201C594.782 738.164 594.895 739.671 593.928 739.708C592.585 739.758 591.329 739.128 590.602 737.982ZM591.889 732.758C591.348 733.558 590.031 732.832 590.574 732.026C591.529 730.612 592.908 729.759 594.585 729.511C595.544 729.37 595.563 730.883 594.618 731.022C593.514 731.185 592.513 731.833 591.889 732.758ZM583.791 756.863C583.25 757.663 581.932 756.937 582.476 756.132C583.431 754.718 584.81 753.864 586.487 753.617C587.445 753.475 587.465 754.988 586.52 755.128C585.416 755.291 584.415 755.938 583.791 756.863ZM580.409 771.138C580.747 770.165 581.719 769.486 582.729 769.428C583.696 769.373 583.811 770.88 582.844 770.935C582.31 770.966 581.935 771.29 581.755 771.809C581.621 772.195 581.078 772.316 580.747 772.151C580.346 771.951 580.274 771.525 580.409 771.138ZM577.264 778.418C577.59 778.138 577.916 777.859 578.243 777.58C578.543 777.322 579.09 777.462 579.286 777.783C579.518 778.164 579.403 778.557 579.082 778.832C578.756 779.111 578.43 779.391 578.104 779.67C577.803 779.928 577.256 779.788 577.06 779.467C576.828 779.086 576.943 778.693 577.264 778.418ZM582.805 745.15C582.222 745.928 580.985 745.071 581.567 744.293C582.376 743.212 583.656 742.626 585 742.778C585.96 742.885 585.83 744.392 584.867 744.283C584.059 744.191 583.298 744.49 582.805 745.15ZM578.347 763.548C577.764 764.327 576.528 763.469 577.109 762.691C577.918 761.611 579.198 761.025 580.542 761.177C581.502 761.284 581.372 762.79 580.409 762.682C579.601 762.59 578.84 762.889 578.347 763.548ZM569.221 773.504C569.547 773.225 569.873 772.946 570.199 772.667C570.5 772.409 571.047 772.549 571.243 772.87C571.475 773.25 571.36 773.644 571.039 773.919C570.713 774.198 570.387 774.477 570.06 774.756C569.76 775.014 569.213 774.875 569.017 774.554C568.785 774.173 568.9 773.779 569.221 773.504ZM566.871 784.826C567.309 783.957 568.665 784.608 568.227 785.477C567.986 785.957 568.077 786.445 568.434 786.861C568.699 787.169 568.53 787.703 568.222 787.909C567.849 788.158 567.446 788.008 567.18 787.698C566.511 786.919 566.414 785.735 566.871 784.826ZM575.94 736.886C575.745 736.51 575.786 736.103 576.143 735.837C576.446 735.612 577.005 735.687 577.187 736.04C577.385 736.42 577.583 736.802 577.78 737.183C577.975 737.558 577.935 737.966 577.576 738.232C577.274 738.456 576.715 738.381 576.533 738.029C576.335 737.648 576.137 737.267 575.94 736.886ZM571.513 747.047C571.534 746.638 571.76 746.269 572.206 746.234C572.575 746.205 573.033 746.521 573.013 746.929C572.986 747.478 573.212 747.919 573.695 748.147C574.571 748.561 573.9 749.915 573.025 749.502C572.109 749.069 571.463 748.076 571.513 747.047ZM566.449 757.112C566.021 756.24 567.447 755.751 567.869 756.611C568.362 757.615 569.282 758.371 570.349 758.68C571.272 758.947 570.989 760.433 570.06 760.164C568.429 759.691 567.198 758.638 566.449 757.112ZM561.985 766.077C561.277 765.415 562.257 764.267 562.965 764.928C563.948 765.847 564.391 767.186 564.098 768.514C563.889 769.464 562.413 769.179 562.623 768.227C562.8 767.429 562.585 766.638 561.985 766.077ZM556.446 778.197L556.476 778.092C556.81 777.131 557.726 776.379 558.75 776.32C559.157 776.297 559.545 776.483 559.625 776.926C559.691 777.291 559.426 777.784 559.02 777.807C558.475 777.838 558.061 778.111 557.885 778.618C557.565 779.538 556.156 779.012 556.476 778.092L556.446 778.197ZM559.963 743.266C559.213 742.658 560.051 741.41 560.807 742.021C562.133 743.095 562.864 744.543 562.965 746.234C563.023 747.201 561.513 747.088 561.456 746.135C561.39 745.022 560.831 743.968 559.963 743.266ZM555.038 756.97L555.067 756.866C555.401 755.904 556.317 755.152 557.341 755.093C557.748 755.07 558.136 755.257 558.216 755.699C558.282 756.065 558.017 756.557 557.611 756.58C557.066 756.611 556.652 756.884 556.476 757.392C556.156 758.311 554.748 757.785 555.067 756.866L555.038 756.97ZM552.488 768.514C552.293 768.139 552.334 767.731 552.692 767.465C552.994 767.241 553.553 767.316 553.735 767.668C553.933 768.049 554.131 768.43 554.328 768.811C554.523 769.186 554.483 769.594 554.124 769.86C553.822 770.085 553.263 770.009 553.081 769.657C552.883 769.276 552.685 768.896 552.488 768.514ZM547.407 759.75L547.436 759.646C547.77 758.685 548.687 757.932 549.71 757.874C550.117 757.85 550.505 758.037 550.585 758.479C550.651 758.845 550.386 759.337 549.981 759.36C549.435 759.392 549.022 759.665 548.845 760.172C548.526 761.092 547.117 760.565 547.436 759.646L547.407 759.75ZM550.035 748.902L551.013 748.064C551.314 747.806 551.861 747.946 552.057 748.267C552.289 748.648 552.174 749.041 551.853 749.316C551.527 749.596 551.201 749.875 550.875 750.154C550.574 750.412 550.027 750.272 549.831 749.951C549.599 749.57 549.714 749.177 550.035 748.902Z" fill="white"/>
</g>
<path fill-rule="evenodd" clip-rule="evenodd" d="M598.333 809.488L598.334 749.569C598.334 734.947 610.187 723.094 624.809 723.094H719.565V844.325H445.252C444.153 844.325 443.261 843.433 443.261 842.334V749.569C443.261 734.947 455.115 723.094 469.737 723.094H496.213C481.591 723.094 469.737 734.947 469.737 749.569V809.488L598.333 809.488Z" fill="#8E8EC4"/>
<mask id="mask7" mask-type="alpha" maskUnits="userSpaceOnUse" x="627" y="723" width="118" height="122">
<path d="M654.072 723.094H744.352V842.334C744.352 843.433 743.461 844.325 742.361 844.325H627.596V749.569C627.596 734.947 639.45 723.094 654.072 723.094Z" fill="white"/>
</mask>
<g mask="url(#mask7)">
<path d="M654.072 723.094H744.352V842.334C744.352 843.433 743.461 844.325 742.361 844.325H627.596V749.569C627.596 734.947 639.45 723.094 654.072 723.094Z" fill="#5E5E93"/>
</g>
<path fill-rule="evenodd" clip-rule="evenodd" d="M473.918 778.832H594.153C596.462 778.832 598.334 780.704 598.334 783.012V809.488H469.737V783.012C469.737 780.704 471.609 778.832 473.918 778.832Z" fill="#4C4C83"/>
<path d="M496.014 797.146C497.663 797.146 499 795.809 499 794.16C499 792.511 497.663 791.174 496.014 791.174C494.365 791.174 493.028 792.511 493.028 794.16C493.028 795.809 494.365 797.146 496.014 797.146Z" fill="white"/>
<path d="M533.836 797.146C535.485 797.146 536.822 795.809 536.822 794.16C536.822 792.511 535.485 791.174 533.836 791.174C532.187 791.174 530.85 792.511 530.85 794.16C530.85 795.809 532.187 797.146 533.836 797.146Z" fill="white"/>
<path d="M571.659 797.146C573.308 797.146 574.645 795.809 574.645 794.16C574.645 792.511 573.308 791.174 571.659 791.174C570.01 791.174 568.673 792.511 568.673 794.16C568.673 795.809 570.01 797.146 571.659 797.146Z" fill="white"/>
<mask id="mask8" mask-type="alpha" maskUnits="userSpaceOnUse" x="449" y="844" width="34" height="57">
<path d="M461.576 844.325H482.477L461.576 900.063H449.034L461.576 844.325Z" fill="white"/>
</mask>
<g mask="url(#mask8)">
<path d="M461.576 844.325H482.477L461.576 900.063H449.034L461.576 844.325Z" fill="#8E8EC4"/>
<path fill-rule="evenodd" clip-rule="evenodd" d="M456.394 844.037H491.645V850.949L456.394 844.037Z" fill="#6A6A9E"/>
</g>
<mask id="mask9" mask-type="alpha" maskUnits="userSpaceOnUse" x="704" y="844" width="34" height="57">
<path d="M725.138 844.325H704.237L725.138 900.063H737.68L725.138 844.325Z" fill="white"/>
</mask>
<g mask="url(#mask9)">
<path d="M725.138 844.325H704.237L725.138 900.063H737.68L725.138 844.325Z" fill="#8E8EC4"/>
<path fill-rule="evenodd" clip-rule="evenodd" d="M703.015 844.314H729.971V851.226L703.015 844.314Z" fill="#6A6A9E"/>
</g>
<mask id="mask10" mask-type="alpha" maskUnits="userSpaceOnUse" x="561" y="844" width="25" height="57">
<path d="M564.244 844.325H585.145L573.998 900.063H561.457L564.244 844.325Z" fill="white"/>
</mask>
<g mask="url(#mask10)">
<path d="M564.244 844.325H585.145L573.998 900.063H561.457L564.244 844.325Z" fill="#8E8EC4"/>
<path fill-rule="evenodd" clip-rule="evenodd" d="M561.318 844.314H588.275V851.226L561.318 844.314Z" fill="#6A6A9E"/>
</g>
<mask id="mask11" mask-type="alpha" maskUnits="userSpaceOnUse" x="592" y="844" width="25" height="57">
<path d="M613.463 844.325H592.561L603.708 900.063H616.249L613.463 844.325Z" fill="white"/>
</mask>
<g mask="url(#mask11)">
<path d="M613.463 844.325H592.561L603.708 900.063H616.249L613.463 844.325Z" fill="#5E5E93"/>
<path fill-rule="evenodd" clip-rule="evenodd" d="M588.966 844.314H615.923V851.226L588.966 844.314Z" fill="#37376C"/>
</g>
<path d="M727.925 858.856H459.187V865.824H727.925V858.856Z" fill="#8E8EC4"/>
<path d="M615.635 627.515V580.254C615.635 559.988 599.206 543.56 578.941 543.56C558.675 543.56 542.247 559.988 542.247 580.254V593.466H548.219V580.254C548.219 563.286 561.974 549.532 578.941 549.532C595.908 549.532 609.663 563.286 609.663 580.254V627.515H615.635Z" fill="#5E5E93"/>
<path d="M548.517 606.344H542.545V619.344H548.517V606.344Z" fill="#5E5E93"/>
<path fill-rule="evenodd" clip-rule="evenodd" d="M545.531 590.48C549.379 590.48 552.499 593.599 552.499 597.447V608.312H538.564V597.447C538.564 593.599 541.683 590.48 545.531 590.48Z" fill="#5B5DC1"/>
<path d="M545.283 663.772C550.093 663.772 553.992 659.873 553.992 655.063C553.992 650.253 550.093 646.354 545.283 646.354C540.473 646.354 536.573 650.253 536.573 655.063C536.573 659.873 540.473 663.772 545.283 663.772Z" fill="white"/>
<mask id="mask12" mask-type="alpha" maskUnits="userSpaceOnUse" x="506" y="616" width="79" height="40">
<path d="M584.349 655.176C584.349 633.737 566.97 616.358 545.531 616.358C524.093 616.358 506.714 633.737 506.714 655.176H584.349Z" fill="white"/>
</mask>
<g mask="url(#mask12)">
<path d="M584.349 655.176C584.349 633.737 566.97 616.358 545.531 616.358C524.093 616.358 506.714 633.737 506.714 655.176H584.349Z" fill="#5B5DC1"/>
<path opacity="0.3" d="M620.385 625.534L621.662 625.871L623.605 626.395C631.42 628.537 637.087 630.507 640.599 632.299C644.976 634.532 645.689 636.106 643.313 637.597C636.296 635.533 629.402 633.453 622.629 631.356C622.068 629.262 621.32 627.321 620.385 625.534ZM486.363 579.235L480.504 576.39L472.509 572.547C458.621 565.925 451.561 562.901 450.463 563.151C449.683 563.328 449.767 563.995 450.186 564.48C450.396 564.722 450.757 565.031 451.283 565.424L451.641 565.687L452.046 565.975C452.976 566.625 454.236 567.449 455.831 568.449L456.486 568.858L450.229 566.069C411.142 548.584 382.337 534.501 363.806 523.818L361.542 522.505C354.724 518.528 350.501 515.83 348.983 514.503C349.095 514.526 349.217 514.553 349.348 514.584L349.551 514.635C351.004 515.006 353.353 515.816 356.588 517.064L357.452 517.399C372.255 523.18 403.83 537.252 452.164 559.607L508.553 575.091L513.664 577.881L519.907 581.265C542.706 593.57 558.592 601.548 567.577 605.204C574.515 608.026 580.835 609.742 587.971 610.998L588.95 611.167C591.044 611.52 597.282 612.436 597.901 612.535C600.943 613.022 603.014 613.483 604.801 614.12C610.522 616.16 614.869 619.331 617.845 623.646L616.15 623.224L614.404 622.798C588.692 616.59 545.633 598.719 485.257 569.192L484.73 570.27L488.3 572.012C546.283 600.247 587.955 617.499 613.343 623.774L616.032 624.431L617.881 624.892C618.185 624.969 618.485 625.045 618.783 625.121C619.713 626.711 620.476 628.439 621.074 630.306L621.267 630.934C569.001 614.696 524.033 597.462 486.363 579.235ZM461.512 572.396L464.673 573.789L467.951 575.712L470.079 576.95C467.947 575.82 465.873 574.711 463.859 573.623C463.068 573.196 462.286 572.787 461.512 572.396ZM482.298 583.332L600.063 635.007C611.247 639.951 617.042 643.358 616.637 644.154C616.46 644.501 614.651 644.683 611.493 644.429L611.162 644.402C610.889 644.378 610.607 644.351 610.315 644.322L602.374 640.714L593.519 636.672C547.826 615.766 510.751 597.986 482.298 583.332ZM606.309 643.821L605.206 643.658L604.051 643.479C601.49 643.074 598.554 642.553 595.245 641.917C565.135 629.615 533.102 613.435 499.147 593.378L497.358 592.319L502.49 594.877L508.048 597.626C535.125 610.966 567.878 626.364 606.309 643.821ZM464.152 577.409C463.916 578.178 464.383 579.439 465.565 581.216L465.739 581.474C457.495 576.834 449.032 572.002 440.352 566.98C446.803 567.489 454.197 569.856 462.604 574.313L466.485 576.396C465.183 576.239 464.412 576.558 464.152 577.409ZM467.544 583.865L467.967 584.379L468.415 584.912C472.324 589.517 478.907 596.082 488.254 604.778L488.402 604.879C521.727 620.962 559.22 636.606 600.882 651.81L607.882 654.364L613.526 656.457C625.623 660.984 632.961 664.028 635.059 665.336L634.798 665.32C633.767 665.243 632.156 664.988 629.975 664.556L628.87 664.333L627.312 664.003C622.552 662.972 615.902 661.351 607.365 659.14L602.712 657.45L596.859 655.309C550.978 638.455 515.958 623.937 491.844 611.771L488.428 610.039L486.575 609.113C475.442 603.595 469.785 601.664 468.632 603.306C467.403 605.058 471.802 609.884 482.273 618.854L483.956 620.288L491.276 622.765L497.94 625.036C549.984 642.829 585.005 656.224 602.984 665.212L604.126 665.789C608.898 668.224 612.248 670.029 614.168 671.2L614.464 671.383L613.71 671.16L613.065 670.959C609.447 669.805 602.95 667.388 593.662 663.732L588.971 661.88L583.151 659.599C537.125 641.642 504.086 630.613 484.014 626.509L482.712 626.249C470.948 623.956 466.018 623.458 465.837 625.142C465.771 625.76 466.576 626.532 468.354 627.539L437.66 615.895C432.25 603.263 427.806 588.111 424.329 570.434C428.206 568.096 432.674 566.867 437.775 566.874C447.998 572.801 457.921 578.464 467.544 583.865ZM614.834 681.293C593.319 669.834 556.016 656.285 502.893 640.624L487.11 634.646C552.585 650.653 595.153 666.209 614.834 681.293ZM619.927 685.858L620.179 686.223C620.225 686.299 620.15 686.271 619.823 686.237L619.588 686.215C617.62 686.066 613.125 684.586 605.754 681.714L603.545 680.844C596.282 677.929 562.859 664.087 552.013 659.801L549.364 658.758L546.735 657.733C520.981 647.733 502.467 641.936 490.562 640.777L489.397 640.672L487.553 640.523C483.786 640.243 481.888 640.281 481.286 640.686C480.358 641.31 480.929 641.971 482.062 642.565L482.382 642.725C483.127 643.084 484.215 643.516 485.684 644.044L486.814 644.433L489.164 645.21C497.025 647.784 514.649 653.387 520.847 655.451L524.027 656.516L527.157 657.579C540.621 662.18 552.757 666.73 564.107 671.552C582.413 679.331 597.397 687.313 608.512 695.604L609.655 696.462L611.099 697.561C614.183 699.931 616.146 701.6 617.053 702.613L617.147 702.719C617.205 702.787 617.257 702.851 617.303 702.909C617.091 702.87 616.808 702.805 616.468 702.708L616.009 702.569L615.543 702.415C612.627 701.426 607.602 699.183 598.361 694.783L570.858 681.533L565.019 678.739L561.179 676.913L557.053 674.963C549.82 671.556 543.116 668.462 536.623 665.545L534.363 664.533C497.67 648.161 471.544 639.291 457.079 639.693L456.102 639.723L454.745 639.776C453.452 639.835 452.347 639.909 451.416 640.006C446.571 633.739 442.209 626.216 438.329 617.433L502.511 641.761L507.648 643.283L510.882 644.251C563.373 660.005 599.343 673.547 618.783 684.86L619.397 685.22C619.618 685.459 619.794 685.671 619.927 685.858ZM447.434 641.23C446.93 642.021 447.512 642.678 448.749 643.335C449.623 643.799 450.95 644.328 452.784 644.951L453.616 645.226L454.427 645.478C465.82 658.027 479.614 664.423 495.813 664.648L496.462 664.653C520.789 664.744 553.746 679.217 590.397 701.878C595.308 704.915 599.932 707.883 604.58 710.954L608.651 713.669C611.019 715.257 614.08 717.314 614.558 717.618L614.793 717.765C615.003 717.894 615.142 717.969 615.245 718.008C615.406 718.068 615.52 718.089 615.717 718.012L615.891 717.885C616.048 717.763 616.058 717.702 616.101 717.427L616.075 717.28C616.065 717.23 616.057 717.207 616.041 717.175L616.021 717.14C615.981 717.067 615.933 717.007 615.863 716.933L615.784 716.854C615.587 716.663 615.206 716.332 614.573 715.802L599.196 703.199C586.551 692.806 569.612 683.38 548.935 674.685C533.14 668.043 516.018 662.148 496.402 656.288L493.768 655.507L488.734 654.057C478.444 651.116 461.084 646.245 455.104 644.43C454.155 643.376 453.222 642.278 452.307 641.137C453.478 641.04 454.911 640.961 456.598 640.908L457.112 640.892C471.471 640.494 497.9 649.522 535.003 666.134L538.441 667.681C546.175 671.178 554.257 674.945 563.212 679.207L568.111 681.547L595.075 694.543L600.564 697.156C608.747 701.022 613.152 702.936 615.766 703.75L615.909 703.794C617.097 704.154 617.824 704.255 618.286 704.012C619.095 703.588 618.837 702.844 618.056 701.936L617.848 701.704L617.6 701.443C616.319 700.136 613.834 698.101 610.024 695.237L609.229 694.642C598.025 686.285 582.963 678.261 564.576 670.448C551.884 665.055 538.219 660.005 522.825 654.847L519.856 653.86C511.216 651.02 489.727 644.202 486.202 642.955L485.445 642.68L484.855 642.459C483.919 642.103 483.209 641.802 482.718 641.553L483.002 641.542L483.344 641.537C484.56 641.531 486.543 641.633 489.26 641.865L490.06 641.935C502.193 643.025 521.62 649.176 548.933 659.878L552.652 661.346L557.431 663.267C572.062 669.189 599.34 680.48 603.867 682.264L605.776 683.011L608.083 683.896C613.959 686.122 617.639 687.271 619.497 687.412C620.632 687.498 621.347 687.117 621.386 686.423C623.227 687.565 624.894 688.684 626.385 689.779L627.095 688.812C625.091 687.34 622.777 685.828 620.154 684.274C619.316 683.394 618.025 682.271 616.253 680.876C596.182 665.078 551.482 648.869 482.098 632.202L480.303 631.497C472.454 628.385 467.743 626.113 467.104 625.412C467.217 625.385 467.367 625.363 467.552 625.348C468.142 625.3 469.018 625.329 470.172 625.436L470.494 625.467C473.07 625.727 476.88 626.344 481.918 627.317L482.483 627.426C503.14 631.452 538.51 643.315 588.568 663.011L594.88 665.499C607.172 670.315 614.128 672.774 615.962 672.936C616.886 673.017 617.465 672.34 616.755 671.577C616.497 671.299 615.997 670.931 615.235 670.45L614.793 670.176C612.908 669.026 609.7 667.293 605.162 664.971L604.671 664.72C585.507 654.942 545.478 639.781 484.557 619.224L483.55 618.367L482.104 617.124C478.041 613.611 474.959 610.75 472.86 608.546L472.622 608.295C470.347 605.873 469.397 604.305 469.615 603.995C469.836 603.679 471.584 603.944 474.559 605.039L474.861 605.152C477.996 606.332 482.371 608.335 487.979 611.157L491.334 612.858C517.307 625.959 555.864 641.767 607.011 660.285L611.813 661.519C619.46 663.462 625.285 664.836 629.322 665.65L630.156 665.815L630.936 665.963C632.568 666.266 633.824 666.45 634.709 666.516C635.331 666.563 635.785 666.553 636.103 666.475C636.674 666.336 637.023 665.86 636.735 665.293C635.969 663.785 625.362 659.428 603.528 651.496C561.786 636.333 524.207 620.733 490.791 604.697L489.005 603.838L487.337 602.28L485.6 600.645C479.171 594.569 474.236 589.614 470.839 585.861L470.565 585.557L475.277 588.184C551.84 630.736 608.766 656.061 646.078 664.163L649.615 664.924L652.427 665.517C660.642 667.234 666.888 668.386 671.168 668.973L671.992 669.082C674.253 669.37 675.903 669.48 676.958 669.412C678.478 669.313 679.322 668.641 678.495 667.57C676.802 665.38 663.187 659.902 636.991 650.782L623.867 643.106C623.962 639.319 623.66 635.855 622.961 632.715C628.652 634.474 634.428 636.221 640.29 637.956L643.476 638.896L643.699 638.766C647.411 636.608 646.351 633.886 641.145 631.23C636.918 629.073 629.729 626.694 619.562 624.082C616.453 618.997 611.667 615.295 605.205 612.99C603.541 612.397 601.67 611.956 599.092 611.515L597.717 611.293L592.096 610.447C591.021 610.283 590.032 610.13 589.361 610.019L589.149 609.984C581.688 608.727 575.194 607.007 568.029 604.092L567.072 603.697C556.482 599.271 537.141 589.371 509.068 574.005L508.939 573.953L452.575 558.484L439.949 552.655L428.26 547.285C394.385 531.765 371.217 521.545 358.799 516.639L357.014 515.942L355.722 515.449C353.238 514.513 351.349 513.872 350.05 513.525L349.848 513.472C348.959 513.245 348.356 513.16 347.96 513.236C347.138 513.392 347.063 514.127 347.542 514.742L347.66 514.883L347.809 515.04C349.246 516.487 354.012 519.535 362.265 524.314L364.372 525.526L366.133 526.525C385.425 537.393 414.65 551.544 453.812 568.981C448.065 566.812 442.839 565.744 438.117 565.686C433.593 563.062 429.009 560.386 424.366 557.659L420.479 555.372L420.677 556.627C421.393 561.179 422.165 565.588 422.994 569.853C419.793 571.928 416.99 574.748 414.571 578.243C411.125 583.224 408.72 589.273 407.267 595.614L407.057 596.561L406.93 597.17C406.09 601.306 405.797 604.889 406.423 605.235L406.877 605.424L410.989 607.019C415.774 608.857 424.334 612.118 436.766 616.839C440.547 625.586 444.796 633.135 449.513 639.484L450.039 640.184C448.562 640.425 447.733 640.761 447.434 641.23ZM456.72 646.164L460.274 647.2L467.033 649.138C476.8 651.923 488.814 655.302 493.869 656.787L494.42 656.95C514.686 662.96 532.283 668.984 548.47 675.791C568.682 684.291 585.289 693.483 597.758 703.574L606.844 711.016C601.642 707.557 596.514 704.25 591.028 700.858C554.56 678.31 521.752 663.836 497.208 663.461L496.466 663.453C481.027 663.396 467.777 657.638 456.72 646.164ZM422.062 557.696C426.706 560.429 431.291 563.109 435.819 565.739C431.644 565.989 427.889 567.075 424.54 568.926L424.086 569.183C423.369 565.464 422.694 561.636 422.062 557.696ZM601.468 630.008L592.703 626.436L580.541 621.462C535.925 603.171 497.486 586.924 465.222 572.721L462.384 571.037L460.122 569.678C459.409 569.246 458.736 568.836 458.105 568.448L456.84 567.665L455.409 566.763C454.188 565.984 453.214 565.335 452.488 564.818L452.966 565.002L453.72 565.302C458.088 567.078 467.065 571.224 480.139 577.548L484.48 579.655C522.658 598.239 568.376 615.789 621.637 632.305C622.332 635.139 622.682 638.262 622.686 641.677L622.682 642.414L601.468 630.008ZM622.647 643.78C622.575 645.66 622.405 647.622 622.138 649.667L613.425 645.73C615.93 645.777 617.329 645.439 617.706 644.698C618.675 642.795 613.51 639.667 601.451 634.308L478.024 580.148L474.305 578.01L481.011 580.928L485.284 582.778C518.287 597.044 556.838 613.145 600.939 631.081L622.647 643.78ZM436.114 615.308L407.247 604.287L407.244 604.1L407.245 603.992C407.251 603.535 407.292 602.902 407.368 602.167C407.554 600.346 407.914 598.162 408.436 595.882C409.859 589.678 412.208 583.767 415.558 578.926C417.781 575.713 420.337 573.094 423.244 571.128C426.624 588.184 430.914 602.912 436.114 615.308ZM610.017 645.504L614.916 647.722L623.106 651.419L623.218 650.628C623.521 648.49 623.72 646.435 623.816 644.465L636.436 651.847L636.542 651.896L640.207 653.177L645.457 655.033C664.834 661.934 675.62 666.38 677.408 668.151C677.276 668.177 677.099 668.2 676.88 668.214C675.802 668.284 673.945 668.142 671.331 667.784L670.282 667.634L668.767 667.402C663.497 666.564 656.017 665.094 646.332 662.991C608.705 654.82 550.939 629.014 473.061 585.576L468.268 582.894L467.831 582.355C465.942 579.986 465.091 578.44 465.299 577.76C465.471 577.2 467.786 577.644 472.066 579.586L472.733 579.892L473.813 580.406C478.021 582.441 483.661 585.559 490.728 589.759L492.632 590.896C528.852 612.627 562.923 630.011 594.847 643.05L594.96 643.084L596.907 643.454L598.835 643.81C603.427 644.643 607.137 645.212 610.017 645.504ZM452.206 642.917L452.876 643.714L452.207 643.479L451.539 643.234C450.584 642.876 449.844 642.558 449.312 642.275C448.951 642.083 448.696 641.913 448.555 641.779C448.828 641.611 449.526 641.449 450.638 641.307L450.883 641.277C451.32 641.833 451.761 642.38 452.206 642.917Z" fill="white"/>
</g>
<path fill-rule="evenodd" clip-rule="evenodd" d="M607.242 626.311H618.19C622.588 626.311 626.153 629.876 626.153 634.274H599.279C599.279 629.876 602.844 626.311 607.242 626.311Z" fill="#5B5DC1"/>
<path d="M707.843 710.105H666.437V722.845H707.843V710.105Z" fill="white"/>
<mask id="mask13" mask-type="alpha" maskUnits="userSpaceOnUse" x="649" y="697" width="89" height="22">
<path d="M687.57 706.92C689.913 713.698 696.346 718.502 703.84 718.502H737.252V708.947H720.664C716.638 708.947 713.3 705.83 713.024 701.814L712.718 697.364H672.193L671.887 701.814C671.611 705.83 668.273 708.947 664.247 708.947H649.792V718.502H664.247C671.633 718.502 677.99 713.834 680.414 707.209L680.517 706.92H687.57Z" fill="white"/>
</mask>
<g mask="url(#mask13)">
<path d="M687.57 706.92C689.913 713.698 696.346 718.502 703.84 718.502H737.252V708.947H720.664C716.638 708.947 713.3 705.83 713.024 701.814L712.718 697.364H672.193L671.887 701.814C671.611 705.83 668.273 708.947 664.247 708.947H649.792V718.502H664.247C671.633 718.502 677.99 713.834 680.414 707.209L680.517 706.92H687.57Z" fill="#13C99B"/>
</g>
<path d="M683.788 711.457C686.454 718.306 693.103 723.039 700.736 723.039H737.252V713.484H700.736C696.424 713.484 692.773 710.301 692.185 706.028L691.618 701.901H675.673L675.105 706.028C674.518 710.301 670.867 713.484 666.555 713.484H649.792V723.039H666.555C674.078 723.039 680.646 718.441 683.386 711.749L683.502 711.457H683.788Z" fill="#6CE1C4"/>
<path d="M478.333 479.769C497.736 479.769 513.466 464.061 513.466 444.685C513.466 425.308 497.736 409.6 478.333 409.6C458.93 409.6 443.2 425.308 443.2 444.685C443.2 464.061 458.93 479.769 478.333 479.769Z" fill="#5E5E93"/>
<path d="M478.333 475.759C495.519 475.759 509.451 461.847 509.451 444.685C509.451 427.522 495.519 413.61 478.333 413.61C461.147 413.61 447.215 427.522 447.215 444.685C447.215 461.847 461.147 475.759 478.333 475.759Z" fill="white"/>
<path fill-rule="evenodd" clip-rule="evenodd" d="M485.31 467.773L485.795 469.717C485.929 470.254 485.602 470.799 485.064 470.933L485.063 470.933C484.526 471.067 483.981 470.74 483.847 470.202L483.362 468.259C483.228 467.721 483.556 467.176 484.093 467.042L484.094 467.042C484.632 466.908 485.176 467.235 485.31 467.773ZM472.572 467.042L472.573 467.042C473.11 467.176 473.437 467.721 473.303 468.259L472.819 470.202C472.685 470.74 472.14 471.067 471.603 470.933L471.602 470.933C471.064 470.799 470.737 470.254 470.871 469.717L471.355 467.773C471.489 467.235 472.034 466.908 472.572 467.042ZM495.715 461.774L497.056 463.263C497.426 463.675 497.393 464.309 496.981 464.68L496.981 464.681C496.569 465.051 495.935 465.018 495.564 464.606L494.223 463.118C493.853 462.706 493.886 462.072 494.298 461.701L494.298 461.7C494.71 461.329 495.345 461.363 495.715 461.774ZM462.367 461.7L462.368 461.701C462.78 462.072 462.813 462.706 462.442 463.118L461.102 464.606C460.731 465.018 460.097 465.051 459.685 464.681L459.684 464.68C459.273 464.309 459.239 463.675 459.61 463.263L460.95 461.774C461.321 461.363 461.956 461.329 462.367 461.7ZM502.16 451.628L504.03 452.346C504.548 452.544 504.806 453.125 504.608 453.642L504.607 453.643C504.409 454.16 503.828 454.419 503.311 454.22L501.441 453.502C500.924 453.304 500.665 452.723 500.864 452.206L500.864 452.205C501.063 451.688 501.643 451.429 502.16 451.628ZM455.802 452.205L455.802 452.206C456.001 452.723 455.742 453.304 455.225 453.502L453.355 454.22C452.838 454.419 452.257 454.16 452.059 453.643L452.058 453.642C451.86 453.125 452.118 452.544 452.635 452.346L454.505 451.628C455.023 451.429 455.603 451.688 455.802 452.205ZM506.231 440.296L506.231 440.297C506.299 440.847 505.908 441.347 505.358 441.415L503.37 441.659C502.82 441.726 502.319 441.335 502.252 440.785L502.251 440.784C502.184 440.234 502.575 439.734 503.125 439.666L505.113 439.422C505.663 439.355 506.164 439.746 506.231 440.296ZM451.553 439.422L453.541 439.666C454.091 439.734 454.482 440.234 454.414 440.784L454.414 440.785C454.347 441.335 453.846 441.726 453.296 441.659L451.308 441.415C450.758 441.347 450.367 440.847 450.434 440.297L450.435 440.296C450.502 439.746 451.003 439.355 451.553 439.422ZM501.454 427.726L501.454 427.727C501.772 428.181 501.662 428.807 501.208 429.125L499.567 430.273C499.113 430.591 498.488 430.481 498.17 430.027L498.169 430.026C497.851 429.572 497.962 428.947 498.416 428.629L500.056 427.48C500.51 427.162 501.136 427.273 501.454 427.726ZM456.609 427.48L458.25 428.629C458.704 428.947 458.814 429.572 458.497 430.026L458.496 430.027C458.178 430.481 457.553 430.591 457.099 430.273L455.458 429.125C455.004 428.807 454.894 428.181 455.211 427.727L455.212 427.726C455.53 427.273 456.155 427.162 456.609 427.48ZM491.402 418.834L491.403 418.835C491.892 419.095 492.078 419.702 491.818 420.192L490.878 421.96C490.636 422.415 490.095 422.607 489.627 422.424L489.52 422.375C489.031 422.114 488.845 421.507 489.105 421.018L490.045 419.249C490.306 418.76 490.913 418.574 491.402 418.834ZM466.62 419.249L467.561 421.018C467.802 421.472 467.659 422.028 467.246 422.314L467.145 422.375C466.656 422.635 466.048 422.449 465.788 421.96L464.848 420.192C464.588 419.702 464.773 419.095 465.263 418.835L465.263 418.834C465.753 418.574 466.36 418.76 466.62 419.249ZM478.333 415.614C478.888 415.614 479.337 416.064 479.337 416.618V418.621C479.337 419.175 478.888 419.624 478.333 419.624H478.332C477.778 419.624 477.329 419.175 477.329 418.621V416.618C477.329 416.064 477.778 415.614 478.332 415.614H478.333Z" fill="#5E5E93"/>
<path d="M478.333 447.692C479.996 447.692 481.344 446.345 481.344 444.685C481.344 443.024 479.996 441.677 478.333 441.677C476.67 441.677 475.322 443.024 475.322 444.685C475.322 446.345 476.67 447.692 478.333 447.692Z" fill="#5E5E93"/>
<path d="M484.291 456.209L478.339 444.611V423.98" stroke="#5E5E93" stroke-width="2.00658" stroke-linecap="round"/>
<path opacity="0.5" fill-rule="evenodd" clip-rule="evenodd" d="M495.2 723.094L503.084 713.244C505.644 710.046 506.369 705.761 505.021 701.91L504.901 701.581C503.505 697.94 504.719 693.828 507.836 691.523L508.062 691.361L514.374 686.997C518.049 684.456 519.833 679.964 518.924 675.61L518.856 675.306C517.796 670.853 519.137 666.179 522.376 662.968L522.623 662.73L530.651 655.176H559.789L568.471 662.89C571.879 665.919 573.393 670.536 572.457 674.981L572.384 675.306C571.321 679.772 573.053 684.439 576.773 687.129L582.462 691.243C585.636 693.539 586.915 697.64 585.635 701.319L585.539 701.581C584.031 705.516 584.723 709.954 587.356 713.244L595.24 723.094H495.2Z" fill="white"/>
<path d="M525.017 655.176V675.58" stroke="#5E5E93" stroke-width="0.995328"/>
<path d="M526.869 676.078C526.869 674.978 525.978 674.087 524.878 674.087C523.779 674.087 522.888 674.978 522.888 676.078V682.05C522.888 683.149 523.779 684.04 524.878 684.04C525.978 684.04 526.869 683.149 526.869 682.05V676.078Z" fill="#5E5E93"/>
</g>
</g>
<defs>
<clipPath id="clip0">
<rect width="720" height="898" fill="white"/>
</clipPath>
</defs>
</svg>
