<svg width="530" height="530" viewBox="0 0 530 530" fill="none" xmlns="http://www.w3.org/2000/svg">
<circle cx="265" cy="265" r="265" fill="#EDF0F1"/>
<mask id="mask0" mask-type="alpha" maskUnits="userSpaceOnUse" x="0" y="0" width="530" height="530">
<circle cx="265" cy="265" r="265" fill="white"/>
</mask>
<g mask="url(#mask0)">
<path fill-rule="evenodd" clip-rule="evenodd" d="M102 517.226C102 479.28 129.712 447.023 167.224 441.303L260.086 427.144L352.949 441.303C390.46 447.023 418.172 479.28 418.172 517.226V707.979H102V517.226Z" fill="#EF821B"/>
<path d="M227.491 388.247H285.347V440.433C285.347 456.409 272.396 469.361 256.419 469.361V469.361C240.443 469.361 227.491 456.409 227.491 440.433V388.247Z" fill="#A13729"/>
<mask id="mask1" mask-type="alpha" maskUnits="userSpaceOnUse" x="227" y="388" width="59" height="82">
<path d="M227.491 388.247H285.347V440.433C285.347 456.409 272.396 469.361 256.419 469.361V469.361C240.443 469.361 227.491 456.409 227.491 440.433V388.247Z" fill="white"/>
</mask>
<g mask="url(#mask1)">
<ellipse opacity="0.644984" cx="254.382" cy="388.247" rx="51.3373" ry="49.6137" fill="#F3A2A2"/>
</g>
<path fill-rule="evenodd" clip-rule="evenodd" d="M332.61 291.382H337.037C341.524 291.382 344.918 295.441 344.123 299.857L340.195 321.683C339.578 325.112 336.594 327.608 333.109 327.608H332.61V291.382Z" fill="#F47D6D" stroke="#CE5E4F" stroke-width="4"/>
<path fill-rule="evenodd" clip-rule="evenodd" d="M183.488 291.382H179.061C174.574 291.382 171.18 295.441 171.975 299.857L175.902 321.683C176.52 325.112 179.504 327.608 182.989 327.608H183.488V291.382Z" fill="#F47D6D" stroke="#CE5E4F" stroke-width="4"/>
<path fill-rule="evenodd" clip-rule="evenodd" d="M181.858 176.404H333.425V344.732C333.425 354.261 331.81 363.749 327.836 372.41C323.737 381.342 317.802 392.735 311.466 399.785C303.989 408.107 290.403 416.558 281.621 421.549C276.209 424.625 270.063 426.048 263.838 426.048H246.603C238.684 426.048 230.916 423.736 224.556 419.017C217.252 413.599 207.8 406.046 203.092 400.059C198.688 394.459 192.982 383.291 188.593 374.038C183.975 364.298 181.858 353.6 181.858 342.821V176.404Z" fill="#CD5E4F"/>
<path opacity="0.8" d="M305.384 279.553C301.556 276.605 296.707 274.844 291.432 274.844C285.235 274.844 279.625 277.275 275.569 281.204" stroke="black" stroke-width="4.4" stroke-linejoin="round"/>
<path d="M210.379 279.553C214.207 276.605 219.056 274.844 224.331 274.844C230.528 274.844 236.137 277.275 240.194 281.204" stroke="black" stroke-width="4.4" stroke-linejoin="round"/>
<path fill-rule="evenodd" clip-rule="evenodd" d="M181.858 329.368L182.378 330.496C191.952 351.276 217.733 358.727 236.916 346.259V346.259C249.459 338.107 265.645 338.182 278.112 346.45L279.41 347.311C298.106 359.71 323.438 352.919 333.425 332.831V332.831V388.911C333.425 421.164 307.279 447.311 275.025 447.311H240.258C208.005 447.311 181.858 421.164 181.858 388.911V329.368Z" fill="black"/>
<ellipse cx="257.893" cy="367.49" rx="20.3719" ry="6.01871" fill="white"/>
<ellipse cx="226.269" cy="292.563" rx="6.11158" ry="5.90639" fill="#130603"/>
<ellipse cx="291.459" cy="292.563" rx="6.11158" ry="5.90639" fill="#130603"/>
<path fill-rule="evenodd" clip-rule="evenodd" d="M257.203 295.345L267.858 337.639H247.465L257.203 295.345Z" fill="#A54032"/>
<path fill-rule="evenodd" clip-rule="evenodd" d="M188.377 251.593L182.108 290.587V249.992L188.377 251.593Z" fill="#B94434"/>
<ellipse opacity="0.5" rx="0.814877" ry="0.787519" transform="matrix(-1 0 0 1 185.932 255.944)" fill="#CD5E4F"/>
<ellipse rx="0.814877" ry="0.787519" transform="matrix(-1 0 0 1 185.117 265.394)" fill="#CD5E4F"/>
<ellipse opacity="0.5" rx="0.814877" ry="0.787519" transform="matrix(-1 0 0 1 183.488 269.331)" fill="#CD5E4F"/>
<ellipse rx="0.814877" ry="0.787519" transform="matrix(-1 0 0 1 183.488 274.844)" fill="#CD5E4F"/>
<ellipse opacity="0.5" rx="0.814877" ry="0.787519" transform="matrix(-1 0 0 1 183.488 260.669)" fill="#CD5E4F"/>
<path fill-rule="evenodd" clip-rule="evenodd" d="M327.721 251.258L333.425 290.594V249.643L327.721 251.258Z" fill="#B94434"/>
<ellipse opacity="0.5" cx="330.166" cy="255.944" rx="0.814877" ry="0.787519" fill="#CD5E4F"/>
<ellipse cx="330.981" cy="265.394" rx="0.814877" ry="0.787519" fill="#CD5E4F"/>
<ellipse opacity="0.5" cx="332.61" cy="269.331" rx="0.814877" ry="0.787519" fill="#CD5E4F"/>
<ellipse cx="332.61" cy="274.844" rx="0.814877" ry="0.787519" fill="#CD5E4F"/>
<ellipse opacity="0.5" cx="332.61" cy="260.669" rx="0.814877" ry="0.787519" fill="#CD5E4F"/>
<path fill-rule="evenodd" clip-rule="evenodd" d="M242.974 49.6136C257.763 49.6136 270.783 56.9359 278.363 68.0338C286.536 64.3013 295.672 62.2139 305.312 62.2139C340.19 62.2139 368.465 89.5392 368.465 123.247C368.465 127.892 367.928 132.415 366.911 136.763C375.911 145.207 381.503 157.024 381.503 170.104C381.503 190.963 367.281 208.611 347.697 214.486C348.635 217.687 349.287 221.261 349.561 225.049C350.604 239.464 345.787 251.533 338.802 252.005C331.817 252.477 325.308 241.174 324.265 226.758C323.984 222.872 324.129 219.156 324.627 215.791C316.12 214.271 308.397 210.586 302.095 205.349C292.666 212.85 280.587 217.355 267.42 217.355C261.11 217.355 255.05 216.321 249.412 214.417C241.746 239.779 217.504 258.306 188.784 258.306C153.906 258.306 125.631 230.981 125.631 197.273C125.631 177.813 135.056 160.48 149.734 149.304C144.8 142.049 141.929 133.365 141.929 124.034C141.929 98.5905 163.272 77.9643 189.599 77.9643C193.94 77.9643 198.146 78.5251 202.143 79.5759C207.112 62.2957 223.51 49.6136 242.974 49.6136Z" fill="black"/>
</g>
</svg>
