<?xml version="1.0" encoding="utf-8"?>
<!-- Generator: Adobe Illustrator 24.3.0, SVG Export Plug-In . SVG Version: 6.00 Build 0)  -->
<svg version="1.1" id="Layer_1" xmlns="http://www.w3.org/2000/svg" xmlns:xlink="http://www.w3.org/1999/xlink" x="0px" y="0px"
	 viewBox="0 0 487.1 54" style="enable-background:new 0 0 487.1 54;" xml:space="preserve">
<style type="text/css">
	.st0{fill:none;stroke:#048484;stroke-width:4;stroke-linecap:round;stroke-linejoin:round;}
</style>
<path class="st0" d="M210.8,50.8c7.9,0,18.3-5.9,30.1-5.9c6.2,0,8.2,0.8,12.7,2.5c9.2,3.4,21.3,1.7,31.5,0.2
	c6.7-1,12.2-2.9,20.7-2.7c8.6,0.2,16.3,2.4,19.8,3.6c6,2.1,22.2,2,29.7,1.3c6.5-0.6,11.2-2.2,18.7-2.4c12.9-0.4,20.4-0.5,31.5,1.3
	c5.9,0.9,12.2,2.2,18.7,2.2c8.2,0,15.4-3,24.1-3c5.1,0,9.4,0.2,14.1,1c4.1,0.7,6.8,2.3,10.7,3"/>
<path class="st0" d="M2.2,51.4c7.1-3.2,17-6.5,28.8-6.5c6.2,0,8.2,0.8,12.7,2.5c9.2,3.4,21.3,1.7,31.5,0.2c6.7-1,12.2-2.9,20.7-2.7
	c8.6,0.2,16.3,2.4,19.8,3.6c6,2.1,22.2,2,29.7,1.3c6.5-0.6,11.2-2.2,18.7-2.4c12.9-0.4,20.4-0.5,31.5,1.3c5.9,0.9,8.7,2.1,15.1,2.1"
	/>
<path class="st0" d="M459.3,8.9l3.7-6.9"/>
<path class="st0" d="M472.4,17.1l5.6-5.5"/>
<path class="st0" d="M476.5,31.8l7.7-1.2"/>
</svg>
