<svg width="1404" height="981" viewBox="0 0 1404 981" fill="none" xmlns="http://www.w3.org/2000/svg">
<path d="M598.3 438.5C598.3 438.5 592.8 448 598.3 455.9H482.4V438.5H598.3Z" fill="#DBDCF1"/>
<path d="M600.2 456.5C600.2 456.9 600 457.3 599.7 457.6C599.4 457.9 599 458.1 598.6 458.1H426.2C423.1 458.1 420.5 455.6 420.5 452.4V442.6C420.5 439.5 423 436.9 426.2 436.9H598.6C599.5 436.9 600.2 437.6 600.2 438.5C600.2 439.4 599.5 440.1 598.6 440.1H491.5C489.4 440.1 487.7 441.8 487.7 443.9V451.2C487.7 453.3 489.4 455 491.5 455H598.6C599.5 454.9 600.2 455.6 600.2 456.5Z" fill="#EE504F"/>
<path d="M600.2 456.2C600.3 456.7 600.1 457.3 599.8 457.6C599.5 457.9 599.1 458.1 598.7 458.1H490.6C487 458.1 484.1 455.2 484.1 451.6V443.4C484.1 439.8 487 436.9 490.6 436.9H598.7C599.5 436.9 600.2 437.5 600.3 438.3C600.4 439.2 599.7 440 598.7 440H491.6C489.5 440 487.8 441.7 487.8 443.8V451.1C487.8 453.2 489.5 454.9 491.6 454.9H598.7C599.3 454.9 600 455.4 600.2 456.2Z" fill="#D34848"/>
<path d="M597.6 492.1C597.6 492.1 591.9 506.6 597.6 519.3H510.5V492.1H597.6Z" fill="#DBDCF1"/>
<path d="M600.7 519.7C600.7 520.3 600.5 520.9 600.1 521.3C599.7 521.7 599.2 521.9 598.6 521.9H414.7C409.9 521.9 405.9 518 405.9 513.1V497.9C405.9 493.1 409.8 489.1 414.7 489.1H598.6C599.7 489.1 600.7 490 600.7 491.1C600.7 492.3 599.8 493.2 598.7 493.2H520.6C516.7 493.2 513.5 496.4 513.5 500.3V510.4C513.5 514.3 516.7 517.5 520.6 517.5H598.6C599.7 517.8 600.7 518.6 600.7 519.7Z" fill="#197A83"/>
<path d="M600.7 519.7C600.7 520.3 600.5 520.9 600.1 521.3C599.7 521.7 599.2 521.9 598.6 521.9H518.7C513.3 521.9 508.9 517.5 508.9 512.1V499C508.9 493.6 513.3 489.2 518.7 489.2H598.6C599.7 489.2 600.7 490.1 600.7 491.2C600.7 492.4 599.8 493.3 598.7 493.3H520.6C516.7 493.3 513.5 496.5 513.5 500.4V510.5C513.5 514.4 516.7 517.6 520.6 517.6H598.6C599.7 517.8 600.7 518.6 600.7 519.7Z" fill="#156468"/>
<path d="M590.7 498.6H542.1V498.9H590.7V498.6Z" fill="#373133"/>
<path d="M570 498.6L573.6 514.8L577.3 508.9V499.8L570 498.6Z" fill="#AFAFD5"/>
<path d="M588 502.8V514.8L580.9 509.5L573.5 514.8V502.8C573.5 499.9 570 498.6 570 498.6H585.6C588 499.3 588 502.4 588 502.8Z" fill="#6D68E0"/>
<path d="M588 502.8H573.6V502.7C573.6 499.8 570.1 498.5 570.1 498.5H585.7C588 499.3 588 502.4 588 502.8Z" fill="#5A5ABA"/>
<path d="M414.4 459.6C414.4 459.6 420.2 475.4 414.4 487.3H528.7V459.6H414.4Z" fill="#DBDCF1"/>
<path d="M607.4 468.4V478.8C607.4 484.6 602.7 489.3 596.9 489.3H414.6C413.7 489.3 413 488.6 413 487.7V487.6C413 486.7 413.7 486 414.6 486H518.2C522.3 486 525.7 482.6 525.7 478.5V468.8C525.7 464.7 522.3 461.3 518.2 461.3H414.6C414.1 461.3 413.7 461.1 413.4 460.8C413.1 460.5 412.9 460 412.9 459.5C413 458.6 413.7 458 414.6 458H596.9C602.7 457.9 607.4 462.6 607.4 468.4Z" fill="#F1884F"/>
<path d="M530.4 467.4V479.9C530.4 485.1 526.2 489.3 521 489.3H414.7C413.8 489.3 413.1 488.6 413.1 487.7V487.6C413.1 486.7 413.8 486 414.7 486H518.3C522.4 486 525.8 482.6 525.8 478.5V468.8C525.8 464.7 522.4 461.3 518.3 461.3H414.7C414.2 461.3 413.8 461.1 413.5 460.8C413.2 460.5 413 460 413 459.5C413.1 458.6 413.8 458 414.7 458H521C526.2 457.9 530.4 462.2 530.4 467.4Z" fill="#D37146"/>
<path d="M479.6 478.1H431V478.4H479.6V478.1Z" fill="#373133"/>
<path d="M468.2 478H462V485.9H468.2V478Z" fill="#AFAFD5"/>
<path d="M464.6 484.9V510L457.8 503.9L451.3 510V485.9L464.6 484.9Z" fill="#A82329"/>
<path d="M468.2 478H455C455 478 455 483.9 451.3 485.9H464.5C464.5 485.9 468.2 484.9 468.2 478Z" fill="#EE504F"/>
<path d="M572.8 406.7C572.8 406.7 568.3 419.4 572.8 433.4H458.2V407.2L572.8 406.7Z" fill="#DBDCF1"/>
<path d="M463.5 403H573C574.3 403 575.3 404 575.3 405.3C575.3 406.6 574.3 407.6 573 407.6H464.6C461.5 407.6 458.9 410.1 458.9 413.3V426.6C458.9 429.7 461.4 432.3 464.6 432.3H573C574.3 432.3 575.3 433.3 575.3 434.6V434.8C575.3 436.1 574.3 437.1 573 437.1H463.5C459 437.1 455.3 433.4 455.3 428.9V411.4C455.3 406.7 459 403 463.5 403Z" fill="#6D68E0"/>
<path d="M558.2 424.4H509.6V424.7H558.2V424.4Z" fill="#373133"/>
<path d="M542.4 424.4H537.3V432.2H542.4V424.4Z" fill="#AFAFD5"/>
<path d="M540.8 431.3V451.7L546.9 445.6L553.1 451.7V432.3L540.8 431.3Z" fill="#156468"/>
<path d="M537.3 424.4H549.4C549.4 424.4 549.4 430.3 553.1 432.2H541C541 432.3 537.3 431.3 537.3 424.4Z" fill="#197A83"/>
<path d="M50.3001 420.7C50.3001 420.7 41.1001 552.9 200.8 530.8L210 552.8C210 552.8 255.4 466 180.6 451.8C165.7 449 120 450 120 450L50.3001 420.7Z" fill="#5CC2AD"/>
<path d="M74.2 666.7C74.2 666.7 55.8 677.7 22.8 725.4L9.8999 699.7L54 652L74.2 666.7Z" fill="black"/>
<path d="M22.8001 725.4C22.8001 725.4 -13.8999 686.8 6.30014 652C6.30014 652 24.7 620.8 57.7 624.5C57.7 624.5 114.6 562.1 184.4 600.6C184.4 600.6 199.1 683.2 59.6002 675.9C59.5002 675.8 13.6001 675.8 22.8001 725.4Z" fill="#5CC2AD"/>
<path d="M21.3 725.7C13.6 691.1 23.5998 665 33.3998 649.3C43.9998 632.3 56.2 623.5 56.8 623.2L58.4999 625.7C58.3999 625.8 46.1998 634.5 35.8998 651.1C26.4998 666.3 16.7999 691.6 24.1999 725.1L21.3 725.7Z" fill="#17311D"/>
<path d="M253.2 619.9C253.2 619.9 266.1 577.7 306.4 581.3C306.4 581.3 328.6 548.8 370.7 577.6C385.4 587.7 398.2 599.6 392.7 645.5C392.7 645.5 378.9 622.6 343.1 621.6C318.8 621.1 253.2 619.9 253.2 619.9Z" fill="#5CC2AD"/>
<path d="M391.3 646C379.6 611 357 595.8 340 589.2C321.6 582.1 305.9 583.2 305.7 583.2L305.5 580.2C306.2 580.1 322.1 579 341.1 586.3C358.6 593.1 382.1 608.8 394.1 644.9L391.3 646Z" fill="#17311D"/>
<path d="M217.4 707.1H156.8C143.9 707.1 132.5 713.6 124.9 719.5C118.4 724.5 114.6 729.1 114.6 729.1C113.4 714.2 119.7 700.2 128.4 690.4C132.6 685.7 137.4 682 142.1 679.6C199.2 651 217.4 707.1 217.4 707.1Z" fill="#197A83"/>
<path d="M193.5 707.2C186.5 670.9 158.2 674.3 158 674.4L157.7 672.4C158 672.4 188.1 668.7 195.5 706.8L193.5 707.2Z" fill="#020403"/>
<path d="M195.936 701.62L191.003 702.44L207.731 803.063L212.664 802.243L195.936 701.62Z" fill="#22452A"/>
<path d="M225.4 804.7L220.4 804C228.3 748.9 226.7 717.7 224.1 694.5C219.6 654.3 206.8 631.6 196.8 619.5C186.1 606.5 176.3 603 176.2 602.9L177.9 598.2C178.3 598.4 188.8 602.1 200.4 616C210.9 628.6 224.4 652.3 229.1 693.9C231.7 717.5 233.3 749 225.4 804.7Z" fill="#5CC2AD"/>
<path d="M225 698.5C217.8 605.6 205 531 204.8 530.3L209.7 529.4C209.8 530.1 222.7 604.9 229.9 698.1L225 698.5Z" fill="#5CC2AD"/>
<path d="M248.3 809.5L243.4 808.5C274.2 663.6 274.6 609.4 274.6 608.9H279.6C279.5 609.4 279.2 664 248.3 809.5Z" fill="#5CC2AD"/>
<path d="M209.5 552.2C209.4 551.6 199.9 492.2 158.9 472.6C147.7 467.2 115.1 450.7 114.8 450.6L116.2 447.9C116.5 448.1 149.1 464.6 160.2 469.9C202.6 490.2 212.3 551.2 212.4 551.8L209.5 552.2Z" fill="#17311D"/>
<path d="M124.9 719.5C118.4 724.5 114.6 729.1 114.6 729.1C113.4 714.2 119.7 700.2 128.4 690.4C126.6 697.4 124.1 709.1 124.9 719.5Z" fill="#020403"/>
<path d="M139.4 794.3H315.6L289.9 976H165.1L139.4 794.3Z" fill="#197A83"/>
<path d="M430.8 533.7L309.3 975.9H286L407.6 533.7H430.8Z" fill="#AFAFD5"/>
<path d="M407.6 533.7L529.1 975.9H552.4L430.8 533.7H407.6Z" fill="#AFAFD5"/>
<path d="M1145.3 533.7H928.7V975.9H1145.3V533.7Z" fill="#AFAFD5"/>
<path d="M507.1 533.7L628.7 975.9H651.9L530.4 533.7H507.1Z" fill="#AFAFD5"/>
<path d="M516.2 533.7L637.7 975.9H661L539.4 533.7H516.2Z" fill="#DBDCF1"/>
<path d="M530.4 533.7L408.8 975.9H385.6L507.1 533.7H530.4Z" fill="#AFAFD5"/>
<path d="M539.4 533.7L417.9 975.9H394.6L516.2 533.7H539.4Z" fill="#DBDCF1"/>
<path d="M460.6 522.1V545.3H1140.7V975.9H1336V522.1H460.6Z" fill="#DBDCF1"/>
<path d="M490.3 522.1H339V545.4H490.3V522.1Z" fill="#AFAFD5"/>
<path d="M1155 555.7V963H1325.7V555.7H1155ZM1320.5 957.8H1160.2V882.2H1211.9V895.8H1273.8V882.2H1320.6V957.8H1320.5ZM1320.5 877H1160.2V796.8H1211.9V810.4H1273.8V796.8H1320.6V877H1320.5ZM1320.5 791.7H1160.2V718.4H1211.9V731.5H1273.8V718.4H1320.6V791.7H1320.5ZM1320.5 713.2H1160.2V640.4H1211.9V654H1273.8V640.4H1320.6V713.2H1320.5ZM1320.5 635.2H1160.2V560.8H1211.9V573.7H1273.8V560.8H1320.6V635.2H1320.5Z" fill="#AFAFD5"/>
<path d="M712.5 441.5L700.5 522.5H759.5L771.5 441.5H712.5Z" fill="#373133"/>
<path d="M578 262.4L590.1 440.6C590.6 448.2 596.9 454.1 604.5 454.1H883.2C891.6 454.1 898.2 447 897.6 438.7L885.5 260.5C885 252.9 878.7 247 871.1 247H592.4C584.1 247 577.5 254.1 578 262.4Z" fill="#373133"/>
<path d="M723.5 441.5L711.5 522.5H770.5L782.5 441.5H723.5Z" fill="#6D68E0"/>
<path d="M895.3 454.2H616.6C609 454.2 602.7 448.3 602.2 440.7L600.7 419L590 262.5C589.4 254.1 596.1 247 604.4 247H883.1C890.7 247 897 252.9 897.5 260.5L908.3 419L909.6 438.7C910.3 447.1 903.7 454.2 895.3 454.2Z" fill="#6D68E0"/>
<path d="M615.7 417.9L606.1 275.3C605.6 268.1 611.6 262 619.1 262H871C877.9 262 883.6 267.1 884 273.6L893.7 417.9H615.7Z" fill="white"/>
<path d="M689 510.5H622.5V522.5H689V510.5Z" fill="#373133"/>
<path d="M863 510.5H685.5V522.5H863V510.5Z" fill="#6D68E0"/>
<path d="M673.4 435.1H632V462.1C632 462.1 632 472.7 642.6 473.7H685C685 473.7 675.8 473.2 673.9 462.6L673.4 435.1Z" fill="#FC2B45"/>
<path d="M724.4 424.1H683V451.1C683 451.1 683 461.7 693.6 462.7H736C736 462.7 726.8 462.2 724.9 451.6L724.4 424.1Z" fill="#FD9E28"/>
<path d="M668.691 261.756L661.705 262.204L671.704 418.191L678.69 417.744L668.691 261.756Z" fill="#DBDCF1"/>
<path d="M813.698 261.756L806.712 262.204L816.711 418.191L823.697 417.744L813.698 261.756Z" fill="#DBDCF1"/>
<path d="M683 291L686 335H798L795 291H683Z" fill="#DBDCF1"/>
<path d="M824 292.6L825.3 311H872L870.7 292.6H824Z" fill="#DBDCF1"/>
<path d="M827 331.6L828.3 350H875L873.7 331.6H827Z" fill="#DBDCF1"/>
<path d="M830 370.6L831.3 389H878L876.7 370.6H830Z" fill="#DBDCF1"/>
<path d="M687 355L690 399H802L799 355H687Z" fill="#DBDCF1"/>
<path d="M724 274.5H683V279.5H724V274.5Z" fill="#DBDCF1"/>
<path d="M655 275H614V280H655V275Z" fill="#DBDCF1"/>
<path d="M656 289H615V294H656V289Z" fill="#DBDCF1"/>
<path d="M657 303H616V308H657V303Z" fill="#DBDCF1"/>
<path d="M658 317H617V322H658V317Z" fill="#DBDCF1"/>
<path d="M659 331H618V336H659V331Z" fill="#DBDCF1"/>
<path d="M849 276H823V281H849V276Z" fill="#DBDCF1"/>
<path d="M1060.9 323.5L1061 294.6C1061 294.6 1013.6 306.8 1036.1 217.3C1036.1 217.3 1066.4 185.5 1104.1 217.3L1108.1 282.3L1113.5 320.6L1060.9 323.5Z" fill="#FCBB9D"/>
<path d="M1128.6 217.7C1132.5 181.3 1112.4 185.6 1112.4 185.6C1092.2 156.7 1082 173.9 1082 173.9C1065 158.7 1059.7 173.4 1059.7 173.4C1043 166.5 1040 181.3 1040 181.3C1024.3 178.3 1025.2 193.1 1025.2 193.1C1019.3 194.1 1018.1 201.8 1018.3 204.9C1019.7 224.7 1033.8 226.2 1041.6 225.5L1043.4 249.6C1043.6 251.9 1045.8 253.4 1048 252.7C1049.3 252.3 1050.2 251.2 1050.5 249.9C1050.6 249.6 1050.6 249.3 1050.6 249.1C1052.3 240.5 1066.2 233.9 1068.2 249.1C1068.2 249.1 1069.7 268.7 1059.4 269.1C1059.4 269.1 1070.5 292.5 1096.9 287.6C1101.3 286.8 1130.2 279.5 1127.9 229.2C1128.8 222.5 1128.6 217.7 1128.6 217.7Z" fill="#373133"/>
<path d="M1018 447L979.4 484.8C975.9 488.2 971.5 490.5 966.7 491.4L841.5 515.5L808.5 517.5C808.5 517.5 814.5 509.5 822.5 507.5H800.5L778.6 517C776 518.1 773 517.1 771.7 514.6C770.5 512.3 771.1 509.4 773.2 507.7L796.5 490C800.3 487.1 805.1 485.7 809.9 486.2L840.9 489.1L852.3 493.2L953 447L1000.5 399.5L1018 447Z" fill="#CC8772"/>
<path d="M797 887.4L776.9 932.1L768.4 951H730.8L740.4 923.1L752.5 888L797 887.4Z" fill="#FCBB9D"/>
<path d="M774.2 938.2C770.9 941.6 757.5 952.9 735.4 937.5C735.2 937.4 735 937.3 734.7 937.5L673.6 970.2C670.7 971.7 671.8 976.1 675.1 976.1H774.8C779.4 976.1 782.8 971.8 781.8 967.4L775.3 938.7C775.2 938 774.6 937.8 774.2 938.2Z" fill="#4F216C"/>
<path d="M945 887.4L931.1 932.4L925.4 951H887.8L892.9 925.1L900.5 887L945 887.4Z" fill="#FCBB9D"/>
<path d="M945 887.4L931.1 932.4L892.9 925.1L900.5 887L945 887.4Z" fill="#E6A68A"/>
<path d="M929.2 938.2C925.9 941.6 912.5 952.9 890.4 937.5C890.2 937.4 890 937.3 889.7 937.5L828.6 970.2C825.7 971.7 826.8 976.1 830.1 976.1H929.8C934.4 976.1 937.8 971.8 936.8 967.4L930.3 938.7C930.2 938 929.6 937.8 929.2 938.2Z" fill="#4F216C"/>
<path d="M932.5 630.5L887 918L953 922L1028.5 630.5H932.5Z" fill="#311547"/>
<path d="M797 887.4L776.9 932.1L740.4 923.1L752.5 888L797 887.4Z" fill="#E6A68A"/>
<path d="M993 454L970.2 473.2L959 482.6C956.3 484.9 953.1 486.4 949.7 487.2L796 522C783.8 524.1 771.4 519 762.5 513.8C759.5 513.3 756.6 512.9 753.8 512.5C749.1 522.4 736 526.1 736 526.1L741.6 505.8C742.4 503 744.2 500.7 746.7 499.3L766.4 488.1C771.3 485.3 777.2 485.2 782.2 487.6L789.4 491.1L925.5 444.3L946 421.7L957.2 409.3L993 454Z" fill="#FCBB9D"/>
<path d="M993 454L970.2 473.2L946 421.9L957.2 409.5L993 454Z" fill="#E6A68A"/>
<path d="M1018.3 554.5L1007.3 568.5L901.8 581.2C875 584.4 852.3 602.4 843 627.7L738 912L809 923L920.2 683.3C920.2 683.3 1190.5 727.2 1160.5 586.4L1018.3 554.5Z" fill="#4F216C"/>
<path d="M1041 316.4C1040.3 316.6 1017.1 326.4 1004.1 343.6C981.9 373 949.4 415.7 949.4 415.7L985.2 464L1001.5 447.8L999.5 530.8L988 569C988 569 1006.8 583.4 1023 591C1087 621 1173 609 1173 609L1162.6 408.7C1162.6 408.7 1165.3 338 1137 316C1137 316 1102.9 298.5 1041 316.4Z" fill="#F1884F"/>
<path d="M1017.17 435.001L984.16 463.021L986.101 465.308L1019.11 437.289L1017.17 435.001Z" fill="#373133"/>
<path d="M1065.5 784.1H1048.2V903.4H1065.5V784.1Z" fill="#DBDCF1"/>
<path d="M1034.1 722.7V772.7C1034.1 785.3 1044.3 795.5 1056.9 795.5C1069.5 795.5 1079.7 785.3 1079.7 772.7V722.7H1034.1Z" fill="#DBDCF1"/>
<path d="M985.4 706.6V710.6C985.4 719.9 992.9 727.4 1002.2 727.4H1134.5C1143.8 727.4 1151.3 719.9 1151.3 710.6V706.6H985.4Z" fill="#DBDCF1"/>
<path d="M1047.8 683.2V713.3H1173.4C1181.7 713.3 1188.4 706.6 1188.4 698.3C1188.4 690 1181.7 683.3 1173.4 683.3H1047.8V683.2Z" fill="#D34848"/>
<path d="M940.8 698.2C940.8 706.5 947.5 713.2 955.8 713.2H1045.2C1053.5 713.2 1060.2 706.5 1060.2 698.2C1060.2 689.9 1053.5 683.2 1045.2 683.2H955.8C947.5 683.2 940.8 689.9 940.8 698.2Z" fill="#EE504F"/>
<path d="M940.9 932.8L1024.2 910.4V910.1C1024.2 892.2 1038.7 877.7 1056.6 877.7C1074.5 877.7 1089 892.2 1089 910.1V911.7L1167.4 932.7C1172.3 934 1175.3 938.9 1174.2 943.9C1173.1 948.9 1168.2 952.1 1163.2 951.1L1082.1 935.5H1056H1052.5H1026.3L945.2 951.1C940.2 952.1 935.3 948.9 934.2 943.9C933.1 939 936 934.1 940.9 932.8Z" fill="#DBDCF1"/>
<path d="M1148.2 976C1156.54 976 1163.3 969.24 1163.3 960.9C1163.3 952.561 1156.54 945.8 1148.2 945.8C1139.86 945.8 1133.1 952.561 1133.1 960.9C1133.1 969.24 1139.86 976 1148.2 976Z" fill="#373133"/>
<path d="M1148.2 969.3C1152.84 969.3 1156.6 965.539 1156.6 960.9C1156.6 956.261 1152.84 952.5 1148.2 952.5C1143.56 952.5 1139.8 956.261 1139.8 960.9C1139.8 965.539 1143.56 969.3 1148.2 969.3Z" fill="#AFAFD5"/>
<path d="M960.5 976C968.84 976 975.6 969.24 975.6 960.9C975.6 952.561 968.84 945.8 960.5 945.8C952.161 945.8 945.4 952.561 945.4 960.9C945.4 969.24 952.161 976 960.5 976Z" fill="#373133"/>
<path d="M960.5 969.3C965.139 969.3 968.9 965.539 968.9 960.9C968.9 956.261 965.139 952.5 960.5 952.5C955.861 952.5 952.1 956.261 952.1 960.9C952.1 965.539 955.861 969.3 960.5 969.3Z" fill="#AFAFD5"/>
<path d="M312.3 0.5H564C569.1 0.5 573.3 4.7 573.3 9.8V194.7C573.3 199.8 569.1 204 564 204H312.3C307.2 204 303 199.8 303 194.7V9.8C303 4.7 307.2 0.5 312.3 0.5Z" fill="#DBDCF1"/>
<path d="M477.5 46.8H316.3V135.2H477.5V46.8Z" fill="white"/>
<path d="M513.3 17.1H345V27.8H513.3V17.1Z" fill="#AFAFD5"/>
<path d="M536.4 28C539.437 28 541.9 25.5376 541.9 22.5C541.9 19.4624 539.437 17 536.4 17C533.362 17 530.9 19.4624 530.9 22.5C530.9 25.5376 533.362 28 536.4 28Z" fill="#AFAFD5"/>
<path d="M550.9 28C553.937 28 556.4 25.5376 556.4 22.5C556.4 19.4624 553.937 17 550.9 17C547.862 17 545.4 19.4624 545.4 22.5C545.4 25.5376 547.862 28 550.9 28Z" fill="#AFAFD5"/>
<path d="M524 46.6H487.1V75.9H524V46.6Z" fill="#AFAFD5"/>
<path d="M553.1 46.6H530.9V51.8H553.1V46.6Z" fill="#AFAFD5"/>
<path d="M564 58.4H530.9V63.6H564V58.4Z" fill="#AFAFD5"/>
<path d="M553.1 86.6H530.9V91.8H553.1V86.6Z" fill="#AFAFD5"/>
<path d="M564 98.4H530.9V103.6H564V98.4Z" fill="#AFAFD5"/>
<path d="M553.1 125.9H530.9V131.1H553.1V125.9Z" fill="#AFAFD5"/>
<path d="M564 137.7H530.9V142.9H564V137.7Z" fill="#AFAFD5"/>
<path d="M553.1 165.2H530.9V170.4H553.1V165.2Z" fill="#AFAFD5"/>
<path d="M564 177H530.9V182.2H564V177Z" fill="#AFAFD5"/>
<path d="M524 86.3H487.1V115.6H524V86.3Z" fill="#AFAFD5"/>
<path d="M524 126.1H487.1V155.4H524V126.1Z" fill="#AFAFD5"/>
<path d="M524 165.5H487.1V194.8H524V165.5Z" fill="#AFAFD5"/>
<path d="M426.5 143.6H315.2V153H426.5V143.6Z" fill="#AFAFD5"/>
<path d="M327.2 185.4C333.827 185.4 339.2 180.027 339.2 173.4C339.2 166.773 333.827 161.4 327.2 161.4C320.573 161.4 315.2 166.773 315.2 173.4C315.2 180.027 320.573 185.4 327.2 185.4Z" fill="#AFAFD5"/>
<path d="M389.4 161.5H349.4V170.2H389.4V161.5Z" fill="#AFAFD5"/>
<path d="M383.2 72.6V109.3L410.7 90.9L383.2 72.6Z" fill="#E8315D"/>
<path d="M335.8 17.1H316.2V28.1H335.8V17.1Z" fill="#AFAFD5"/>
<path d="M724.7 108H641.5C639.6 108 638 109.6 638 111.5V174.8C638 176.7 639.6 178.3 641.5 178.3H691.1L714.7 199V178.3H724.6C726.5 178.3 728.1 176.7 728.1 174.8V111.5C728.2 109.6 726.6 108 724.7 108Z" fill="#DBDCF1"/>
<path d="M673.8 125.6V160L700.7 142.8L673.8 125.6Z" fill="#E8315D"/>
<path d="M945.1 61.9C945.1 58.9 942.6 56.4 939.6 56.4H824.3C821.3 56.4 818.8 58.9 818.8 61.9V152.7C818.8 155.7 821.3 158.2 824.3 158.2H835.9V185.2L859.5 158.2H939.6C942.6 158.2 945.1 155.7 945.1 152.7V61.9Z" fill="#DBDCF1"/>
<path d="M926.9 84.7001H838.9V92.7001H926.9V84.7001Z" fill="#AFAFD5"/>
<path d="M927 101.8H839V109.8H927V101.8Z" fill="#AFAFD5"/>
<path d="M927 119H839V127H927V119Z" fill="#AFAFD5"/>
<path d="M169 257.3V290.4C169 294.5 172.3 297.7 176.3 297.7H434.4C438.5 297.7 441.7 294.4 441.7 290.4V257.3C441.7 253.2 438.4 250 434.4 250H176.3C172.3 250 169 253.3 169 257.3Z" fill="#DBDCF1"/>
<path d="M169 318.5V351.6C169 355.7 172.3 358.9 176.3 358.9H434.4C438.5 358.9 441.7 355.6 441.7 351.6V318.5C441.7 314.4 438.4 311.2 434.4 311.2H176.3C172.3 311.2 169 314.5 169 318.5Z" fill="#DBDCF1"/>
<path d="M353.5 271.3H184.5V276.4H353.5V271.3Z" fill="#AFAFD5"/>
<path d="M195.9 335.1L202.7 338.9L200.4 343L193.4 338.9L193.5 346.6H188.9L189 338.9L182.1 342.9L179.7 338.8L186.6 335L179.7 331.2L182.1 327.1L189 331.2L188.9 323.5H193.5L193.4 331.2L200.4 327.1L202.7 331.2L195.9 335.1Z" fill="#AFAFD5"/>
<path d="M233.5 335.1L240.3 338.9L238 343L231 338.9L231.1 346.6H226.5L226.6 338.9L219.7 342.9L217.3 338.8L224.2 335L217.3 331.2L219.7 327.1L226.6 331.2L226.5 323.5H231.1L231 331.2L238 327.1L240.3 331.2L233.5 335.1Z" fill="#AFAFD5"/>
<path d="M271.1 335.1L277.9 338.9L275.6 343L268.6 338.9L268.7 346.6H264.1L264.2 338.9L257.3 342.9L254.9 338.8L261.8 335L254.9 331.2L257.3 327.1L264.2 331.2L264.1 323.5H268.7L268.6 331.2L275.6 327.1L277.9 331.2L271.1 335.1Z" fill="#AFAFD5"/>
<path d="M308.7 335.1L315.5 338.9L313.2 343L306.2 338.9L306.3 346.6H301.7L301.8 338.9L294.9 342.9L292.5 338.8L299.4 335L292.5 331.2L294.9 327.1L301.8 331.2L301.7 323.5H306.3L306.2 331.2L313.2 327.1L315.5 331.2L308.7 335.1Z" fill="#AFAFD5"/>
<path d="M346.7 335.1L353.5 338.9L351.2 343L344.2 338.9L344.3 346.6H339.7L339.8 338.9L332.9 342.9L330.5 338.8L337.4 335L330.5 331.2L332.9 327.1L339.8 331.2L339.7 323.5H344.3L344.2 331.2L351.2 327.1L353.5 331.2L346.7 335.1Z" fill="#AFAFD5"/>
<path d="M1404 975.5H50V980.5H1404V975.5Z" fill="#373133"/>
</svg>
