<svg width="1174" height="1052" viewBox="0 0 1174 1052" fill="none" xmlns="http://www.w3.org/2000/svg">
<path d="M62.8998 520C62.8998 520 54.1997 645.4 205.8 624.5L214.5 645.4C214.5 645.4 257.5 563 186.6 549.6C172.5 546.9 129.1 547.9 129.1 547.9L62.8998 520Z" fill="#5CC2AD"/>
<path d="M85.5 753.4C85.5 753.4 68.1002 763.9 36.7002 809.1L24.5 784.7L66.2998 739.4L85.5 753.4Z" fill="black"/>
<path d="M36.7001 809.2C36.7001 809.2 1.89988 772.6 20.9999 739.5C20.9999 739.5 38.3997 709.9 69.7997 713.4C69.7997 713.4 123.8 654.2 190 690.8C190 690.8 203.9 769.2 71.4999 762.2C71.5999 762.2 28.0001 762.2 36.7001 809.2Z" fill="#5CC2AD"/>
<path d="M35.2997 809.5C27.9997 776.6 37.4997 751.9 46.7997 737C56.8997 720.8 68.4999 712.5 68.9999 712.2L70.7001 714.7C70.6001 714.8 58.9997 723.1 49.2997 738.8C40.2997 753.2 31.2001 777.2 38.2001 809L35.2997 809.5Z" fill="#17311D"/>
<path d="M255.4 709C255.4 709 267.6 668.9 305.9 672.4C305.9 672.4 327 641.5 366.9 668.9C380.9 678.5 393 689.8 387.8 733.4C387.8 733.4 374.7 711.6 340.8 710.8C317.6 710.2 255.4 709 255.4 709Z" fill="#5CC2AD"/>
<path d="M386.3 733.9C375.2 700.7 353.8 686.3 337.7 680.1C320.3 673.3 305.4 674.4 305.2 674.5L305 671.5C305.6 671.4 320.8 670.3 338.8 677.3C355.5 683.8 377.7 698.7 389.2 733L386.3 733.9Z" fill="#17311D"/>
<path d="M221.4 791.8H163.9C151.6 791.8 140.9 797.9 133.6 803.6C127.5 808.3 123.8 812.7 123.8 812.7C122.6 798.6 128.6 785.2 136.9 775.9C140.9 771.4 145.4 767.9 149.9 765.6C204.2 738.5 221.4 791.8 221.4 791.8Z" fill="#197A83"/>
<path d="M198.7 792C192.1 757.7 166.1 760.7 165 760.9L164.7 758.9C165 758.9 193.6 755.4 200.6 791.6L198.7 792Z" fill="#020403"/>
<path d="M201.255 786.721L196.322 787.541L212.197 883.035L217.13 882.215L201.255 786.721Z" fill="#22452A"/>
<path d="M229.1 884.5L224.2 883.8C231.7 831.5 230.1 801.9 227.7 779.9C219.5 706.9 182.7 693.3 182.3 693.1L183.9 688.4C185.5 689 224 703.2 232.6 779.3C235.1 801.6 236.6 831.6 229.1 884.5Z" fill="#5CC2AD"/>
<path d="M228.5 783.7C221.6 695.6 209.5 624.8 209.4 624.1L214.3 623.2C214.4 623.9 226.6 694.9 233.5 783.3L228.5 783.7Z" fill="#5CC2AD"/>
<path d="M250.8 889L245.9 888C275.1 750.5 275.5 699.1 275.5 698.6H280.5C280.5 699.1 280.2 751 250.8 889Z" fill="#5CC2AD"/>
<path d="M213.8 644.8C213.7 644.2 204.7 587.9 165.9 569.3C155.3 564.2 124.4 548.5 124.1 548.4L125.5 545.7C125.8 545.9 156.7 561.5 167.3 566.6C207.6 585.9 216.8 643.8 216.9 644.4L213.8 644.8Z" fill="#17311D"/>
<path d="M133.6 803.6C127.5 808.3 123.8 812.7 123.8 812.7C122.6 798.6 128.6 785.2 136.9 775.9C135.2 782.6 132.9 793.7 133.6 803.6Z" fill="#020403"/>
<path d="M147.3 874.5H314.6L290.2 1047H171.7L147.3 874.5Z" fill="#4F216C"/>
<path d="M1075.7 592.9C1075.7 592.9 1102.4 695.7 973.3 701.9L969.3 720.6C969.3 720.6 920.8 658.9 977.6 636.7C988.9 632.3 1025.1 626.3 1025.1 626.3L1075.7 592.9Z" fill="#5CC2AD"/>
<path d="M1100.8 802.4C1100.8 802.4 1117.9 803.5 1159 825.5L1158.7 802.5L1109.8 784.6L1100.8 802.4Z" fill="black"/>
<path d="M1159 825.5C1159 825.5 1171.1 784.6 1143.9 767.1C1143.9 767.1 1119.4 751.6 1097.2 766.3C1097.2 766.3 1033.8 742.6 998.1 795.7C998.1 795.7 1017.9 860 1114.7 803.6C1114.7 803.6 1147.4 786.8 1159 825.5Z" fill="#5CC2AD"/>
<path d="M1157.5 825.9C1144.2 775 1097.4 767.8 1096.9 767.8L1097.3 764.8C1097.8 764.9 1109.8 766.6 1123.6 774.9C1136.4 782.6 1153.1 797.5 1160.4 825.1L1157.5 825.9Z" fill="#17311D"/>
<path d="M937.2 761.5C937.2 761.5 926.9 727.6 894.5 730.6C894.5 730.6 876.7 704.5 843 727.7C831.2 735.8 820.9 745.4 825.3 782.2C825.3 782.2 836.3 763.8 865 763.1C884.6 762.4 937.2 761.5 937.2 761.5Z" fill="#5CC2AD"/>
<path d="M826.8 782.6L824 781.7C833.7 752.6 852.6 740 866.7 734.5C882 728.6 894.8 729.5 895.4 729.6L895.2 732.6C895.1 732.6 882.4 731.7 867.7 737.4C847.9 744.9 834.2 760.2 826.8 782.6Z" fill="#17311D"/>
<path d="M981 909.8C975.6 876.2 974.7 852.5 978.1 830.4C981.8 805.6 996.6 790.8 1008.3 782.7C1020.9 774 1032.5 771.2 1033 771L1034.2 775.9C1033.8 776 989.7 787.1 983.1 831.1C979.9 852.6 980.7 875.9 986 908.9L981 909.8Z" fill="#5CC2AD"/>
<path d="M963 913.9C951.6 847 954.5 791.2 959 756.3C963.8 718.3 971.3 696.6 971.6 695.7L976.3 697.3C976 698.2 946.3 786.3 968 913.1L963 913.9Z" fill="#5CC2AD"/>
<path d="M940.6 913.6C915.8 797 915.5 753.1 915.5 752.7H920.5C920.5 753.1 920.8 796.6 945.5 912.6L940.6 913.6Z" fill="#5CC2AD"/>
<path d="M970 720.3L967 719.8C967.1 719.4 974.4 676.5 1000 649C1006.8 641.7 1026.8 624.6 1027.6 623.9L1029.5 626.2C1029.3 626.4 1008.8 643.9 1002.1 651.1C977.2 677.9 970 719.8 970 720.3Z" fill="#17311D"/>
<path d="M1028.4 901.3H887.1L907.8 1047H1007.8L1028.4 901.3Z" fill="#4F216C"/>
<path d="M976.5 1034.3L919.6 1046.5C914.8 1047.5 910 1044.5 908.9 1039.6L816.3 608.9L833.9 510.8L887.6 588.2L890.8 592.9L983.4 1023.6C984.4 1028.5 981.4 1033.2 976.5 1034.3Z" fill="#F1884F"/>
<path d="M890.9 593L816.4 609V608.9L826.4 552.8L833.9 510.8L857.1 544.3L858.3 545.9L890.8 592.9L890.9 593Z" fill="#FCBB9D"/>
<path d="M858.3 545.9L826.4 552.8L833.9 510.8L858.3 545.9Z" fill="#373133"/>
<path d="M962.5 926.2L925.2 934.1L852.2 595.8L887.6 588.2L890.8 592.9L962.5 926.2Z" fill="#D87245"/>
<path d="M890.9 593L853.3 601.1L841.8 547.4L857.1 544.3L858.3 545.9L890.8 592.9L890.9 593Z" fill="#DBA18A"/>
<path d="M858.3 545.9L842.2 549.4L833.9 510.8L858.3 545.9Z" fill="#161415"/>
<path d="M976.5 1034.3L919.6 1046.5C914.8 1047.5 910 1044.5 908.9 1039.6L897.8 987.8L972.3 971.8L983.4 1023.6C984.4 1028.5 981.4 1033.2 976.5 1034.3Z" fill="#EE504F"/>
<path d="M961.787 922.329L887.286 938.339L898.274 989.472L972.775 973.463L961.787 922.329Z" fill="#373133"/>
<path d="M976.5 1034.3L948.2 1040.4L935.2 979.8L972.3 971.8L983.4 1023.6C984.4 1028.5 981.4 1033.2 976.5 1034.3Z" fill="#CE4646"/>
<path d="M961.719 922.36L924.665 930.323L935.653 981.457L972.708 973.494L961.719 922.36Z" fill="#161415"/>
<path d="M904 761.4C904 761.4 885.3 794 904 820.8H507.6V761.4H904Z" fill="#DBDCF1"/>
<path d="M910.4 823C910.4 824.5 909.8 825.8 908.8 826.8C907.8 827.8 906.5 828.4 905 828.4H315.3C304.6 828.4 296 819.7 296 809.1V775.6C296 764.9 304.7 756.3 315.3 756.3H905C908 756.3 910.4 758.7 910.4 761.7C910.4 764.7 908 767 905 767H538.7C531.5 767 525.7 772.8 525.7 780V804.9C525.7 812.1 531.5 817.9 538.7 817.9H905C908 817.6 910.4 820 910.4 823Z" fill="#EE504F"/>
<path d="M910.3 822C910.6 823.9 910 825.6 908.8 826.8C907.8 827.8 906.5 828.4 905 828.4H535.2C523 828.4 513 818.5 513 806.2V778.3C513 766.1 522.9 756.1 535.2 756.1H904.7C907.5 756.1 910 758.1 910.3 760.9C910.6 764.1 908.1 766.8 905 766.8H538.7C531.5 766.8 525.7 772.6 525.7 779.8V804.7C525.7 811.9 531.5 817.7 538.7 817.7H904.8C907.5 817.6 909.8 819.4 910.3 822Z" fill="#D34848"/>
<path d="M901.6 944.8C901.6 944.8 882.1 994.3 901.6 1037.9H603.6V944.8H901.6Z" fill="#DBDCF1"/>
<path d="M912.2 1039.3C912.3 1041.5 911.5 1043.5 910.1 1044.9C908.8 1046.2 907 1047 905 1047H276.2C259.6 1047 246.2 1033.6 246.2 1017V965.2C246.2 948.6 259.6 935.2 276.2 935.2H905C908.8 935.2 912.1 938.1 912.2 941.9C912.3 945.8 909.2 949.1 905.3 949.1H638.2C624.7 949.1 613.8 960 613.8 973.5V1008.1C613.8 1021.6 624.7 1032.5 638.2 1032.5H904.8C908.6 1032.6 912 1035.5 912.2 1039.3Z" fill="#197A83"/>
<path d="M912.2 1039.3C912.3 1041.5 911.5 1043.5 910.1 1044.9C908.8 1046.2 907 1047 905 1047H631.6C613.1 1047 598.1 1032 598.1 1013.5V968.6C598.1 950.1 613.1 935.1 631.6 935.1H905C908.8 935.1 912.1 938 912.2 941.8C912.3 945.7 909.2 949 905.3 949H638.2C624.7 949 613.8 959.9 613.8 973.4V1008C613.8 1021.5 624.7 1032.4 638.2 1032.4H904.8C908.6 1032.6 912 1035.5 912.2 1039.3Z" fill="#156468"/>
<path d="M877.9 966.8H711.7V968H877.9V966.8Z" fill="#373133"/>
<path d="M807.2 966.8L819.4 1022.5L832.1 1002.3V971L807.2 966.8Z" fill="#AFAFD5"/>
<path d="M868.8 981.3C868.8 981.4 868.8 981.4 868.8 981.4V1022.3L844.6 1004.1L819.4 1022.3V981.1C819.4 971 807.3 966.8 807.3 966.8H860.7C868.7 969.2 868.8 980.1 868.8 981.3Z" fill="#6D68E0"/>
<path d="M868.8 981.3H819.4V981.1C819.4 971 807.3 966.8 807.3 966.8H860.7C868.7 969.2 868.8 980.1 868.8 981.3Z" fill="#5A5ABA"/>
<path d="M275.2 833.6C275.2 833.6 295 887.6 275.2 928.3H666.2V833.6H275.2Z" fill="#DBDCF1"/>
<path d="M935 863.7V899.4C935 919.2 919 935.2 899.2 935.2H275.7C272.6 935.2 270.1 932.7 270.1 929.6V929.3C270.1 926.2 272.6 923.7 275.7 923.7H630.1C644.3 923.7 655.8 912.2 655.8 898V864.8C655.8 850.6 644.3 839.1 630.1 839.1H275.7C274.1 839.1 272.7 838.5 271.7 837.4C270.6 836.3 270 834.7 270.1 833C270.3 830 272.9 827.8 275.9 827.8H899.2C919 827.9 935 844 935 863.7Z" fill="#F1884F"/>
<path d="M671.7 860.3V902.9C671.7 920.7 657.2 935.2 639.4 935.2H275.7C272.6 935.2 270.1 932.7 270.1 929.6V929.3C270.1 926.2 272.6 923.7 275.7 923.7H630.1C644.3 923.7 655.8 912.2 655.8 898V864.8C655.8 850.6 644.3 839.1 630.1 839.1H275.7C274.1 839.1 272.7 838.5 271.7 837.4C270.6 836.3 270 834.7 270.1 833C270.3 830 272.9 827.8 275.9 827.8H639.3C657.2 827.9 671.7 842.4 671.7 860.3Z" fill="#D37146"/>
<path d="M476.9 896.8H310.7V898H476.9V896.8Z" fill="#373133"/>
<path d="M380.1 896.5H358.8V923.5H380.1V896.5Z" fill="#AFAFD5"/>
<path d="M367.6 920.2V1005.9L344.3 984.9L322.1 1005.9V923.5L367.6 920.2Z" fill="#A82329"/>
<path d="M380.1 896.5H334.9C334.9 896.5 334.9 916.7 322.1 923.5H367.3C367.3 923.5 380.1 920.2 380.1 896.5Z" fill="#EE504F"/>
<path d="M816.9 652.5C816.9 652.5 801.4 696 816.9 743.7H424.8V654.2L816.9 652.5Z" fill="#DBDCF1"/>
<path d="M443 640H817.4C821.7 640 825.2 643.5 825.2 647.8C825.2 652.1 821.7 655.6 817.4 655.6H446.6C435.9 655.6 427.2 664.3 427.2 675V720.6C427.2 731.3 435.9 740 446.6 740H817.4C821.7 740 825.2 743.5 825.2 747.8V748.3C825.2 752.6 821.7 756.1 817.4 756.1H443C427.5 756.1 414.9 743.5 414.9 728V668.2C414.9 652.6 427.5 640 443 640Z" fill="#6D68E0"/>
<path d="M766.7 713.4H600.5V714.6H766.7V713.4Z" fill="#373133"/>
<path d="M712.7 713.4H695.2V740.2H712.7V713.4Z" fill="#AFAFD5"/>
<path d="M707.2 736.8V806.6L728 785.9L749.2 806.6V740.2L707.2 736.8Z" fill="#156468"/>
<path d="M695.2 713.4H736.5C736.5 713.4 736.5 733.5 749.2 740.2H707.9C707.9 740.2 695.2 736.8 695.2 713.4Z" fill="#197A83"/>
<path d="M752.6 51.5L742.1 94C742.1 94 781.8 130.8 854.2 119.7L861.9 77.3L752.6 51.5Z" fill="#373133"/>
<path d="M800.4 87.2L709 41.2L711.4 36L905.7 81.9L904.9 87.2H800.4Z" fill="#564F51"/>
<path d="M711.5 36.1L813.9 41.4L905.6 81.8H802.1L711.5 36.1Z" fill="#373133"/>
<path d="M857.7 135.8H853.2V83.1L811 56.8L813.4 53L857.7 80.6V135.8Z" fill="#F1884F"/>
<path d="M802 50.2C802 50.2 801.2 50.5 800.5 51.2C799.1 52.4 799.2 54.6 800.7 55.7C802.7 57.1 806.4 59 812.8 59.1C814.6 59.1 816 57.5 815.7 55.8C815.6 55.2 815.4 54.6 815.1 54.1L802 50.2Z" fill="#F1884F"/>
<path d="M815.105 54.9582C815.497 53.4623 812.696 51.4327 808.85 50.4247C805.004 49.4167 801.568 49.8119 801.176 51.3078C800.784 52.8036 803.584 54.8336 807.43 55.8417C811.277 56.8497 814.713 56.454 815.105 54.9582Z" fill="#564F51"/>
<path d="M855.5 134.9C857.2 134.9 858.7 136.3 858.7 138.1L858.8 143L861.1 161.1H850.1L852.4 143L852.5 138.1C852.4 136.3 853.8 134.9 855.5 134.9Z" fill="#F1884F"/>
<path d="M186.4 433C214.566 433 237.4 410.167 237.4 382C237.4 353.833 214.566 331 186.4 331C158.233 331 135.4 353.833 135.4 382C135.4 410.167 158.233 433 186.4 433Z" fill="#DBDCF1"/>
<path d="M167.4 355.1V408.9L214.1 382.2L167.4 355.1Z" fill="#EE504F"/>
<path d="M427.2 80.5999C427.2 52.6999 404.5 30.0999 376.6 30.1999C348.8 30.2999 326 53.3999 326.3 81.1999C326.4 96.0999 333 109.4 343.4 118.6C345 120 346.4 121.4 347.7 123C351.8 128.1 356.9 137 356.9 149.9H371.6H381.8H396.5C396.5 136.3 402.2 127.1 406.4 122.2C407.5 121 408.6 119.8 409.9 118.7C420.5 109.4 427.2 95.7999 427.2 80.5999Z" fill="#F1884F"/>
<path d="M401 97.8999C399.3 95.0999 395.4 90.9999 387.7 95.0999C387.1 94.6999 385.9 94.1999 384.4 93.7999C381.6 93.0999 378.9 93.4999 376.3 94.7999C375.6 94.4999 374.7 94.0999 373.5 93.7999C370.6 93.0999 367.8 93.4999 365.2 94.8999C357.8 91.0999 354 95.0999 352.3 97.8999C351.1 99.8999 351.1 103.8 352.1 109.7C352.9 114.2 354.4 119.9 356.6 126.6C360.2 138 364.4 148.5 364.5 148.6L366.4 147.8C366.4 147.7 362.2 137.2 358.6 125.9C352.4 106.3 353.1 100.6 354.1 98.8999C356.2 95.3999 359.3 94.4999 363.4 96.2999C363 96.6999 362.7 97.1999 362.4 97.8999C361.8 99.2999 361.4 101.1 361.4 103C361.4 104.9 361.7 106.8 362.4 108.1C363.1 109.7 364.2 110.7 365.5 110.7C366.8 110.7 367.8 109.8 368.6 108.1C369.2 106.7 369.6 104.9 369.6 103C369.6 101.1 369.3 99.1999 368.6 97.8999C368.3 97.1999 367.9 96.5999 367.5 96.1999C370.5 94.9999 373.1 95.6999 374.7 96.2999C374.3 96.6999 374 97.1999 373.7 97.8999C373.1 99.2999 372.7 101.1 372.7 103C372.7 104.9 373 106.8 373.7 108.1C374.4 109.7 375.5 110.7 376.8 110.7C378 110.7 379.1 109.8 379.9 108.1C380.5 106.7 380.9 104.9 380.9 103C380.9 101.1 380.6 99.1999 379.9 97.8999C379.6 97.0999 379.1 96.4999 378.7 96.0999C381.6 95.0999 384.2 95.6999 385.8 96.3999C385.4 96.7999 385.1 97.2999 384.8 97.8999C384.2 99.2999 383.8 101.1 383.8 103C383.8 104.9 384.1 106.8 384.8 108.1C385.5 109.7 386.6 110.7 387.9 110.7C389.2 110.7 390.2 109.8 391 108.1C391.6 106.7 392 104.9 392 103C392 101.1 391.7 99.1999 391 97.8999C390.7 97.2999 390.4 96.7999 390.1 96.3999C394.3 94.4999 397.4 95.3999 399.5 98.9999C400.5 100.7 401.2 106.4 395 126C391.4 137.3 387.2 147.8 387.2 147.9L389.1 148.7C389.1 148.6 393.4 138 397 126.7C399.1 120 400.6 114.3 401.4 109.8C402.3 103.8 402.2 99.8999 401 97.8999ZM365.6 108.7C364.9 108.7 363.6 106.7 363.6 103C363.6 99.2999 364.9 97.2999 365.6 97.2999C366.3 97.2999 367.6 99.2999 367.6 103C367.6 106.7 366.3 108.7 365.6 108.7ZM378.8 103C378.8 106.7 377.5 108.7 376.8 108.7C376.1 108.7 374.8 106.7 374.8 103C374.8 99.2999 376.1 97.2999 376.8 97.2999C377.5 97.2999 378.8 99.2999 378.8 103ZM387.7 108.7C387 108.7 385.7 106.7 385.7 103C385.7 99.2999 387 97.2999 387.7 97.2999C388.4 97.2999 389.7 99.2999 389.7 103C389.7 106.7 388.4 108.7 387.7 108.7Z" fill="white"/>
<path d="M367.9 166.6V169.7C367.9 174.7 371.9 178.7 376.9 178.7C381.9 178.7 385.9 174.7 385.9 169.7V166.6H367.9Z" fill="#373133"/>
<path d="M397.4 147.2H356.4V166.9H397.4V147.2Z" fill="#AFAFD5"/>
<path d="M359.1 172.2H394.5C397 172.2 399.1 170.1 399.1 167.6C399.1 165.1 397 163 394.5 163H359.1C356.6 163 354.5 165.1 354.5 167.6C354.5 170.1 356.6 172.2 359.1 172.2Z" fill="#DBDCF1"/>
<path d="M356.7 149.5H396.9C399.4 149.5 401.5 147.4 401.5 144.9C401.5 142.4 399.4 140.3 396.9 140.3H356.7C354.2 140.3 352.1 142.4 352.1 144.9C352.2 147.5 354.2 149.5 356.7 149.5Z" fill="#DBDCF1"/>
<path d="M356.7 160.9H396.9C399.4 160.9 401.5 158.8 401.5 156.3C401.5 153.8 399.4 151.7 396.9 151.7H356.7C354.2 151.7 352.1 153.8 352.1 156.3C352.2 158.8 354.2 160.9 356.7 160.9Z" fill="#DBDCF1"/>
<path d="M274.4 234.6L271.1 218.1L253.9 224.7L251.1 206.4L234.5 213.1L232.3 195L218 202L216.7 199.3L234.8 190.5L237 208.9L253.5 202.2L256.3 220.6L273.3 214L277.3 234L274.4 234.6Z" fill="#EE504F"/>
<path d="M909.1 261.8L891.8 254.2L893 251.5L907.1 257.6L911.1 241.3L926.3 248.8L930.1 232.8L946.7 241.7L945.3 244.3L932.1 237.3L928.4 253.2L913.1 245.6L909.1 261.8Z" fill="#197A83"/>
<path d="M574.9 36.6L572.3 35.1L579.9 22L564 16.9L572.8 0.199951L575.5 1.59995L568.4 15.1L584.4 20.3L574.9 36.6Z" fill="#6D68E0"/>
<path d="M917.1 371.5L921.1 358.7L930.2 361.7L933.6 355.4L963.9 365.1L963.7 371.8L1013.4 387.7L1009.1 401L917.1 371.5Z" fill="#F1884F"/>
<path d="M914 365.5L903.5 422.9L990.2 450.7L1015.1 398L914 365.5Z" fill="#FFB392"/>
<path d="M725.7 315C718.5 282.8 694.1 270.7 677.7 264.9C654.6 256.7 644.1 237.7 644.1 237.7C638.2 226.5 633.7 218.9 629.6 213.5C644.5 211.7 650.3 201.6 650.3 201.6C645.1 205.2 639.5 206.9 634.5 207.6C642 204.9 647.3 197.8 647.3 189.4C647.3 178.7 638.6 170.1 628 170.1C617.3 170.1 608.7 178.8 608.7 189.4C608.7 192.6 609.5 195.5 610.8 198.2C583.7 184.9 557.6 197.3 547.5 209.8C523.7 239.3 558.2 277.8 558.2 277.8L557.5 295.7C521.7 335.8 551.1 369.4 551.1 369.4C592.3 396.7 653.6 388 684.7 381C700 377.6 713 367.4 719.9 353.4C725 342.7 728.9 329.2 725.7 315Z" fill="#373133"/>
<path d="M584.3 306.4V306C584.3 306 544.9 330.3 549.9 245.1C549.9 245.1 553.1 227.6 565.3 221.8C565.3 221.8 582.5 250.7 616.1 255.8C616.1 255.8 626.1 240.8 634 252.9C634 252.9 639.7 265.1 629 274.4L641.2 353.6L581.4 354L583.5 318.6L584.3 306.4Z" fill="#FCBB9D"/>
<path d="M493.6 887.2H448.5L442 863L436.7 843.1H482.9L486.2 856.5L493.6 887.2Z" fill="#FCBB9D"/>
<path d="M586.8 837.4L582.9 876.1L579.8 907.3L540.2 909.7L539.5 880.1L538.5 837.4H586.8Z" fill="#FCBB9D"/>
<path d="M486.2 856.5L442 863L436.7 843.1H482.9L486.2 856.5Z" fill="#E6A68A"/>
<path d="M586.8 837.4L582.9 876.1L539.5 880.1L538.5 837.4H586.8Z" fill="#E6A68A"/>
<path d="M582.5 323.5L535.2 342.3C524 348.4 515.4 358.4 511 370.4L476.7 463.6H529.1L518 570.4L688.1 589L685.9 444.8H736.8L721.4 377C717.7 360.6 706.3 347 690.9 340.3L638.1 317.6C638.1 317.5 595 364 582.5 323.5Z" fill="#5CC2AD"/>
<path d="M540.9 648.9L448.5 638.2L491.1 847.3H421.3L343.3 597.4C343.3 597.4 336.7 584.2 347.1 568.1C355.2 555.4 369.5 548 384.6 548H569.9L540.9 648.9Z" fill="#311547"/>
<path d="M688.7 582.3C688.7 582.3 680.5 535.6 546.7 544.7C546.7 544.7 520.9 543.6 520.9 617.7V861.6H593.9L608.9 648.8C609 648.9 685.5 657.5 688.7 582.3Z" fill="#4F216C"/>
<path d="M490.3 866.6C490.3 866.6 470.8 885.1 445.4 877.6C445.4 877.6 401.4 913.4 393.4 922.6C388.2 928.5 393.5 937.6 401.2 936.1L500.1 913.8C505.7 912.7 508.8 906.7 506.4 901.6L490.3 866.6Z" fill="#311547"/>
<path d="M520.1 679.9C513.1 562.4 538.5 546.8 539.6 546.1L541.1 548.7L540.4 547.4L541.2 548.7C541 548.8 516.4 564.9 523.2 679.7L520.1 679.9Z" fill="white"/>
<path d="M581.1 895C581.1 895 589.9 899.2 591.7 931.1C591.9 934.2 589.4 936.8 586.3 936.8H510.5C503.3 936.8 499.9 928 505.2 923.1C516.5 912.8 526.2 907.6 540.2 896.3C540.2 896.4 564.4 912.3 581.1 895Z" fill="#4F216C"/>
<path d="M727.3 518.5L600.6 532.5L589.3 534L518.3 543.4C514.5 543.9 512.3 539.2 515.1 536.6L543.4 510.6C546.3 506.5 551 504 556.1 504H571.2L578.6 502L684.2 473.9L681.3 460.2L680.6 456.7L677.2 440.5L735.9 440.7L737.4 447.5L737.7 448.8L746.8 491.6C749.4 504.6 740.4 517 727.3 518.5Z" fill="#FCBB9D"/>
<path d="M737.3 447.6L680.5 456.7L677.1 440.5L735.8 440.7L737.3 447.6Z" fill="#E6A68A"/>
<path d="M589.3 534L518.3 543.4C514.5 543.9 512.3 539.2 515.1 536.6L543.4 510.6C546.3 506.5 551 504 556.1 504H571.2L578.6 502L589.3 534Z" fill="#E6A68A"/>
<path d="M468 496C473.523 496 478 491.523 478 486C478 480.477 473.523 476 468 476C462.477 476 458 480.477 458 486C458 491.523 462.477 496 468 496Z" fill="white"/>
<path d="M563.1 428.5L576.8 548.4H412.6L398.9 428.5H563.1Z" fill="#AFAFD5"/>
<path d="M655 539.6H557.7V548.4H655V539.6Z" fill="#AFAFD5"/>
<path d="M555.2 428.5L569 548.4H404.8L391 428.5H555.2Z" fill="#DBDCF1"/>
<path d="M470.3 495.7C475.823 495.7 480.3 491.223 480.3 485.7C480.3 480.177 475.823 475.7 470.3 475.7C464.777 475.7 460.3 480.177 460.3 485.7C460.3 491.223 464.777 495.7 470.3 495.7Z" fill="white"/>
<path d="M669.455 405.666L666.549 406.414L676.75 446.022L679.655 445.274L669.455 405.666Z" fill="#373133"/>
<path d="M609 290C609 290 606 311.8 583.6 318.6L584.3 306.5C584.4 306.5 584.4 306.4 584.5 306.4C591.4 303.2 598.9 298.1 609 290Z" fill="#E6A68A"/>
<path d="M1174 1047H0V1052H1174V1047Z" fill="#373133"/>
</svg>
