<svg width="1318" height="976" viewBox="0 0 1318 976" fill="none" xmlns="http://www.w3.org/2000/svg">
<path d="M1317.5 670.5H780V667.5H1314.5V412.5H1129.5V312H1132.5V409.5H1317.5V670.5Z" fill="#2A2E43" fill-opacity="0.45"/>
<path d="M241.5 643.2H238.5V470.5H149V373H152V467.5H241.5V643.2Z" fill="#2A2E43" fill-opacity="0.45"/>
<path d="M152 226.5H149V0H1117V71.1H1114V3H152V226.5Z" fill="#2A2E43" fill-opacity="0.45"/>
<path d="M817.6 975.2H458.3C431.9 975.2 410.4 953.8 410.4 927.3V113C410.4 86.6 431.8 65.1 458.3 65.1H817.6C844 65.1 865.5 86.5 865.5 113V927.3C865.5 953.8 844.1 975.2 817.6 975.2Z" fill="#DBDCF1"/>
<path d="M806.9 958.7H469C445.9 958.7 427.2 940 427.2 916.9V123.5C427.2 100.4 445.9 81.7 469 81.7H806.9C830 81.7 848.7 100.4 848.7 123.5V916.9C848.8 940 830 958.7 806.9 958.7Z" fill="#2A2E43" fill-opacity="0.8"/>
<path d="M478.4 98H528.7C529.5 113.9 542.6 126.5 558.7 126.5H719.6C735.7 126.5 748.8 113.9 749.6 98H799.9C818.6 98 833.8 113.2 833.8 131.9V910.5C833.8 929.2 818.6 944.4 799.9 944.4H478.5C459.8 944.4 444.6 929.2 444.6 910.5V131.9C444.4 113.2 459.6 98 478.4 98Z" fill="white"/>
<path d="M679.6 101.3H619.7V109.4H679.6V101.3Z" fill="white"/>
<path d="M604.2 111.7C607.68 111.7 610.5 108.879 610.5 105.4C610.5 101.921 607.68 99.1 604.2 99.1C600.721 99.1 597.9 101.921 597.9 105.4C597.9 108.879 600.721 111.7 604.2 111.7Z" fill="white"/>
<path d="M120.2 610.6H332.7C337 610.6 340.4 614.1 340.4 618.3V813.7C340.4 818 336.9 821.4 332.7 821.4H120.2C115.9 821.4 112.5 817.9 112.5 813.7V618.3C112.5 614.1 116 610.6 120.2 610.6Z" fill="#DBDCF1" fill-opacity="0.85"/>
<path d="M294.6 620.9H157.6V630.9H294.6V620.9Z" fill="#AFAFD5" fill-opacity="0.67"/>
<path d="M261.2 643.2H125.1V806.7H261.2V643.2Z" fill="white"/>
<path d="M239.9 658.1H146.3V666.1H239.9V658.1Z" fill="#DBDCF1" fill-opacity="0.85"/>
<path d="M240.1 672.3H146.5V680.3H240.1V672.3Z" fill="#DBDCF1" fill-opacity="0.85"/>
<path d="M328.5 669.1H272V689.6H328.5V669.1Z" fill="#AFAFD5" fill-opacity="0.67"/>
<path d="M328.5 742.7H272V773.7H328.5V742.7Z" fill="#AFAFD5" fill-opacity="0.67"/>
<path d="M328.5 699.9H289.3V720.4H328.5V699.9Z" fill="#AFAFD5" fill-opacity="0.67"/>
<path d="M328.5 724.8H305.1V731.9H328.5V724.8Z" fill="#AFAFD5" fill-opacity="0.67"/>
<path d="M328.5 779.8H305.1V786.9H328.5V779.8Z" fill="#AFAFD5" fill-opacity="0.67"/>
<path d="M295.3 779.7H271.9V786.8H295.3V779.7Z" fill="#AFAFD5" fill-opacity="0.67"/>
<path d="M936.7 47.5H1295.3C1302.6 47.5 1308.5 53.4 1308.5 60.7V324.2C1308.5 331.5 1302.6 337.4 1295.3 337.4H936.7C929.4 337.4 923.5 331.5 923.5 324.2V60.7C923.5 53.4 929.4 47.5 936.7 47.5Z" fill="#DBDCF1" fill-opacity="0.85"/>
<path d="M1172.2 113.4H942.5V239.3H1172.2V113.4Z" fill="white"/>
<path d="M1223.3 71.1H983.4V86.3H1223.3V71.1Z" fill="#AFAFD5" fill-opacity="0.67"/>
<path d="M1256.1 86.7C1260.41 86.7 1263.9 83.2078 1263.9 78.9C1263.9 74.5922 1260.41 71.1 1256.1 71.1C1251.79 71.1 1248.3 74.5922 1248.3 78.9C1248.3 83.2078 1251.79 86.7 1256.1 86.7Z" fill="#AFAFD5" fill-opacity="0.67"/>
<path d="M1276.7 86.7C1281.01 86.7 1284.5 83.2078 1284.5 78.9C1284.5 74.5922 1281.01 71.1 1276.7 71.1C1272.39 71.1 1268.9 74.5922 1268.9 78.9C1268.9 83.2078 1272.39 86.7 1276.7 86.7Z" fill="#AFAFD5" fill-opacity="0.67"/>
<path d="M1238.5 113.2H1185.9V154.9H1238.5V113.2Z" fill="#AFAFD5" fill-opacity="0.67"/>
<path d="M1279.9 113.2H1248.3V120.7H1279.9V113.2Z" fill="#AFAFD5" fill-opacity="0.67"/>
<path d="M1295.5 130H1248.3V137.5H1295.5V130Z" fill="#AFAFD5" fill-opacity="0.67"/>
<path d="M1279.9 170.2H1248.3V177.7H1279.9V170.2Z" fill="#AFAFD5" fill-opacity="0.67"/>
<path d="M1295.5 187H1248.3V194.5H1295.5V187Z" fill="#AFAFD5" fill-opacity="0.67"/>
<path d="M1279.9 226.2H1248.3V233.7H1279.9V226.2Z" fill="#AFAFD5" fill-opacity="0.67"/>
<path d="M1295.5 243H1248.3V250.5H1295.5V243Z" fill="#AFAFD5" fill-opacity="0.67"/>
<path d="M1279.9 282.2H1248.3V289.7H1279.9V282.2Z" fill="#AFAFD5" fill-opacity="0.67"/>
<path d="M1295.5 299H1248.3V306.5H1295.5V299Z" fill="#AFAFD5" fill-opacity="0.67"/>
<path d="M1238.5 169.8H1185.9V211.5H1238.5V169.8Z" fill="#AFAFD5" fill-opacity="0.67"/>
<path d="M1238.5 226.4H1185.9V268.1H1238.5V226.4Z" fill="#AFAFD5" fill-opacity="0.67"/>
<path d="M1238.5 282.6H1185.9V324.3H1238.5V282.6Z" fill="#AFAFD5" fill-opacity="0.67"/>
<path d="M1099.5 251.4H940.9V264.8H1099.5V251.4Z" fill="#AFAFD5" fill-opacity="0.67"/>
<path d="M958 311C967.444 311 975.1 303.344 975.1 293.9C975.1 284.456 967.444 276.8 958 276.8C948.556 276.8 940.9 284.456 940.9 293.9C940.9 303.344 948.556 311 958 311Z" fill="#AFAFD5" fill-opacity="0.67"/>
<path d="M1046.5 276.8H989.5V289.1H1046.5V276.8Z" fill="#AFAFD5" fill-opacity="0.67"/>
<path d="M1037.7 150.2V202.6L1076.9 176.4L1037.7 150.2Z" fill="#E8315D" fill-opacity="0.8"/>
<path d="M970.3 71.1H942.4V86.7H970.3V71.1Z" fill="#AFAFD5" fill-opacity="0.67"/>
<path d="M9.2998 168.5H306.8C311.7 168.5 315.6 172.4 315.6 177.3V387.1C315.6 392 311.7 395.9 306.8 395.9H9.2998C4.3998 395.9 0.5 392 0.5 387.1V177.3C0.5 172.4 4.3998 168.5 9.2998 168.5Z" fill="#DBDCF1" fill-opacity="0.85"/>
<path d="M242.5 184.5H50.8999V200.7H242.5V184.5Z" fill="#AFAFD5" fill-opacity="0.51"/>
<path d="M27.7002 200.7C32.1737 200.7 35.7998 197.073 35.7998 192.6C35.7998 188.126 32.1737 184.5 27.7002 184.5C23.2267 184.5 19.6001 188.126 19.6001 192.6C19.6001 197.073 23.2267 200.7 27.7002 200.7Z" fill="#AFAFD5" fill-opacity="0.67"/>
<path d="M290.1 200.7C294.574 200.7 298.2 197.073 298.2 192.6C298.2 188.126 294.574 184.5 290.1 184.5C285.627 184.5 282 188.126 282 192.6C282 197.073 285.627 200.7 290.1 200.7Z" fill="#AFAFD5"/>
<path d="M103.2 229.7H16.2002V285.7H103.2V229.7Z" fill="#AFAFD5" fill-opacity="0.51"/>
<path d="M83 293.8H16.2002V303.5H83V293.8Z" fill="#AFAFD5"/>
<path d="M204.4 229.7H117.4V285.7H204.4V229.7Z" fill="#AFAFD5" fill-opacity="0.51"/>
<path d="M184.2 293.8H117.4V303.5H184.2V293.8Z" fill="#AFAFD5"/>
<path d="M305.6 229.7H218.6V285.7H305.6V229.7Z" fill="#AFAFD5" fill-opacity="0.51"/>
<path d="M103.2 322.5H16.2002V378.5H103.2V322.5Z" fill="#AFAFD5" fill-opacity="0.51"/>
<path d="M204.4 322.5H117.4V378.5H204.4V322.5Z" fill="#AFAFD5" fill-opacity="0.51"/>
<path d="M305.6 322.5H218.6V378.5H305.6V322.5Z" fill="#AFAFD5" fill-opacity="0.51"/>
<path d="M285.4 293.8H218.6V303.5H285.4V293.8Z" fill="#AFAFD5"/>
<path d="M1239.7 617.4C1239.7 617.4 1231.7 631.4 1239.7 642.9H1069.5V617.4H1239.7Z" fill="#DBDCF1"/>
<path d="M1242.4 643.8C1242.4 644.4 1242.1 645 1241.7 645.4C1241.3 645.8 1240.7 646.1 1240.1 646.1H986.9C982.3 646.1 978.6 642.4 978.6 637.8V623.4C978.6 618.8 982.3 615.1 986.9 615.1H1240.1C1241.4 615.1 1242.4 616.1 1242.4 617.4C1242.4 618.7 1241.4 619.7 1240.1 619.7H1082.8C1079.7 619.7 1077.2 622.2 1077.2 625.3V636C1077.2 639.1 1079.7 641.6 1082.8 641.6H1240.1C1241.4 641.5 1242.4 642.5 1242.4 643.8Z" fill="#EE504F"/>
<path d="M1242.4 643.4C1242.5 644.2 1242.3 644.9 1241.8 645.5C1241.4 645.9 1240.8 646.2 1240.2 646.2H1081.4C1076.1 646.2 1071.9 641.9 1071.9 636.7V624.7C1071.9 619.4 1076.2 615.2 1081.4 615.2H1240C1241.2 615.2 1242.3 616.1 1242.4 617.3C1242.5 618.7 1241.5 619.8 1240.1 619.8H1082.8C1079.7 619.8 1077.2 622.3 1077.2 625.4V636.1C1077.2 639.2 1079.7 641.7 1082.8 641.7H1240C1241.2 641.5 1242.2 642.3 1242.4 643.4Z" fill="#D34848"/>
<path d="M1238.6 696.1C1238.6 696.1 1230.2 717.3 1238.6 736.1H1110.7V696.1H1238.6Z" fill="#DBDCF1"/>
<path d="M1243.2 736.7C1243.3 737.6 1242.9 738.5 1242.3 739.1C1241.7 739.7 1241 740 1240.1 740H970.1C963 740 957.2 734.2 957.2 727.1V704.8C957.2 697.7 963 691.9 970.1 691.9H1240.1C1241.7 691.9 1243.2 693.2 1243.2 694.8C1243.2 696.5 1241.9 697.9 1240.2 697.9H1125.5C1119.7 697.9 1115 702.6 1115 708.4V723.3C1115 729.1 1119.7 733.8 1125.5 733.8H1240C1241.7 733.8 1243.1 735 1243.2 736.7Z" fill="#197A83"/>
<path d="M1243.2 736.7C1243.3 737.6 1242.9 738.5 1242.3 739.1C1241.7 739.7 1241 740 1240.1 740H1122.7C1114.8 740 1108.3 733.6 1108.3 725.6V706.3C1108.3 698.4 1114.7 691.9 1122.7 691.9H1240.1C1241.7 691.9 1243.2 693.2 1243.2 694.8C1243.2 696.5 1241.9 697.9 1240.2 697.9H1125.5C1119.7 697.9 1115 702.6 1115 708.4V723.3C1115 729.1 1119.7 733.8 1125.5 733.8H1240C1241.7 733.8 1243.1 735 1243.2 736.7Z" fill="#156468"/>
<path d="M1228.5 705.6H1157.1V706.1H1228.5V705.6Z" fill="#2A2E43" fill-opacity="0.8"/>
<path d="M1198.1 705.6L1203.4 729.5L1208.8 720.8V707.4L1198.1 705.6Z" fill="#AFAFD5"/>
<path d="M1224.6 711.8V729.4L1214.2 721.6L1203.4 729.4V711.7C1203.4 707.4 1198.2 705.6 1198.2 705.6H1221.1C1224.5 706.6 1224.6 711.3 1224.6 711.8Z" fill="#6D68E0"/>
<path d="M1224.6 711.8H1203.4V711.7C1203.4 707.4 1198.2 705.6 1198.2 705.6H1221.1C1224.5 706.6 1224.6 711.3 1224.6 711.8Z" fill="#5A5ABA"/>
<path d="M969.7 648.4C969.7 648.4 978.2 671.6 969.7 689.1H1137.6V648.4H969.7Z" fill="#DBDCF1"/>
<path d="M1253 661.3V676.6C1253 685.1 1246.1 692 1237.6 692H969.9C968.6 692 967.5 690.9 967.5 689.6V689.5C967.5 688.2 968.6 687.1 969.9 687.1H1122.1C1128.2 687.1 1133.1 682.2 1133.1 676.1V661.9C1133.1 655.8 1128.2 650.9 1122.1 650.9H969.9C969.2 650.9 968.6 650.6 968.2 650.2C967.7 649.7 967.5 649.1 967.5 648.3C967.6 647 968.7 646.1 970 646.1H1237.6C1246.1 645.9 1253 652.8 1253 661.3Z" fill="#F1884F"/>
<path d="M1139.9 659.8V678.1C1139.9 685.8 1133.7 692 1126 692H969.8C968.5 692 967.4 690.9 967.4 689.6V689.5C967.4 688.2 968.5 687.1 969.8 687.1H1122C1128.1 687.1 1133 682.2 1133 676.1V661.9C1133 655.8 1128.1 650.9 1122 650.9H969.8C969.1 650.9 968.5 650.6 968.1 650.2C967.6 649.7 967.4 649.1 967.4 648.3C967.5 647 968.6 646.1 969.9 646.1H1126C1133.7 645.9 1139.9 652.2 1139.9 659.8Z" fill="#D37146"/>
<path d="M1056.3 675.5H984.9V676H1056.3V675.5Z" fill="#2A2E43" fill-opacity="0.8"/>
<path d="M1014.7 675.4H1005.6V687H1014.7V675.4Z" fill="#AFAFD5"/>
<path d="M1009.4 685.5V722.3L999.4 713.4L989.8 722.3V687L1009.4 685.5Z" fill="#A82329"/>
<path d="M1014.7 675.4H995.3C995.3 675.4 995.3 684.1 989.8 687H1009.2C1009.2 687 1014.7 685.5 1014.7 675.4Z" fill="#EE504F"/>
<path d="M1202.3 570.6C1202.3 570.6 1195.6 589.3 1202.3 609.7H1033.9V571.3L1202.3 570.6Z" fill="#DBDCF1"/>
<path d="M1041.7 565.3H1202.5C1204.3 565.3 1205.8 566.8 1205.8 568.6C1205.8 570.4 1204.3 571.9 1202.5 571.9H1043.3C1038.7 571.9 1035 575.6 1035 580.2V599.8C1035 604.4 1038.7 608.1 1043.3 608.1H1202.5C1204.3 608.1 1205.8 609.6 1205.8 611.4V611.6C1205.8 613.4 1204.3 614.9 1202.5 614.9H1041.7C1035 614.9 1029.6 609.5 1029.6 602.8V577.1C1029.7 570.7 1035.1 565.3 1041.7 565.3Z" fill="#6D68E0"/>
<path d="M1180.8 596.8H1109.4V597.3H1180.8V596.8Z" fill="#2A2E43" fill-opacity="0.8"/>
<path d="M1157.5 596.7H1150V608.2H1157.5V596.7Z" fill="#AFAFD5"/>
<path d="M1155.2 606.8V636.8L1164.1 627.9L1173.2 636.8V608.2L1155.2 606.8Z" fill="#156468"/>
<path d="M1150 596.7H1167.7C1167.7 596.7 1167.7 605.3 1173.2 608.2H1155.5C1155.5 608.2 1150 606.8 1150 596.7Z" fill="#197A83"/>
<path d="M401.6 210H537.9C542.4 210 546 213.6 546 218.1V283.1C546 287.6 542.4 291.2 537.9 291.2H527.9V319.1L503.8 291.2H401.6C397.1 291.2 393.5 287.6 393.5 283.1V218.1C393.5 213.6 397.1 210 401.6 210Z" fill="#6D68E0"/>
<path d="M500.7 258C504.953 258 508.4 254.553 508.4 250.3C508.4 246.047 504.953 242.6 500.7 242.6C496.448 242.6 493 246.047 493 250.3C493 254.553 496.448 258 500.7 258Z" fill="white"/>
<path d="M468.9 258C473.152 258 476.6 254.553 476.6 250.3C476.6 246.047 473.152 242.6 468.9 242.6C464.647 242.6 461.2 246.047 461.2 250.3C461.2 254.553 464.647 258 468.9 258Z" fill="white"/>
<path d="M437.2 258C441.453 258 444.9 254.553 444.9 250.3C444.9 246.047 441.453 242.6 437.2 242.6C432.948 242.6 429.5 246.047 429.5 250.3C429.5 254.553 432.948 258 437.2 258Z" fill="white"/>
<path d="M988.7 445.4C991 458.7 974.1 470.4 974.1 470.4C965.7 493.2 948.6 498.6 948.6 498.6L859.3 740.5C859.3 740.5 848.1 757.5 823.3 753.7C818.8 753 813.9 751.6 808.5 749.4L730.3 706.5L798 590.5L834.1 619.2L841.8 604.8L906.8 483L913.6 449.8L946.5 405.4L993.2 348.4C1002.8 363.5 986.2 379.7 986.2 379.7C982.4 389.9 969.3 412.4 969.3 412.4C972.2 411.5 974 412 976.5 413.7C987.7 421.3 984.4 427.8 984.4 427.8C995.4 436.8 988.7 445.4 988.7 445.4Z" fill="#FCBB9D" fill-opacity="0.44"/>
<path d="M983.447 427.202L964.667 450.981L966.237 452.221L985.017 428.442L983.447 427.202Z" fill="#2A2E43" fill-opacity="0.8"/>
<path d="M989.378 441.999L975.997 457.265L977.501 458.583L990.882 443.318L989.378 441.999Z" fill="#2A2E43" fill-opacity="0.8"/>
<path d="M951.1 470L949.6 468.7C961.6 454.3 952.1 432.4 952 432.2L951.6 431.2L952.6 430.9C963.9 427.1 967.8 419.7 969 416.7L939.6 418.7L939.5 416.7L971.7 414.5L971.4 415.8C971.3 416.3 968.7 427.2 954.2 432.4C956 437.1 962.5 456.3 951.1 470Z" fill="#2A2E43" fill-opacity="0.8"/>
<path d="M730.3 801.5L741.9 945.5H616.3L595.3 824.5L730.3 801.5Z" fill="#047c7c" fill-opacity="0.33"/>
<path d="M665.3 827.5L644.9 945.5H505.3L511.3 824.5L665.3 827.5Z" fill="#047c7c" fill-opacity="0.9"/>
<path d="M623.1 424.3C623.1 424.3 605.2 419.1 605.4 389.6L622.6 392.3L623.1 424.3Z" fill="#2A2E43" fill-opacity="0.8"/>
<path d="M714.5 332.2C714.5 332.2 719.1 354.8 706.2 369.4L695.1 334.7L714.5 332.2Z" fill="#2A2E43" fill-opacity="0.8"/>
<path d="M710.1 408.5C709.7 442.2 693.8 448.5 687.7 449.6C686.2 449.9 685.3 449.9 685.3 449.9L685.8 466.7L687.1 515L610.2 507L616.9 402.5C616.9 402.5 600.6 400.2 597.6 380.9C595.9 369.9 597 364.4 605.6 362.3C626.7 356.9 640 324.6 640 324.6L704.8 328.1C704.8 328.1 710.4 381.7 710.1 408.5Z" fill="#FCBB9D" fill-opacity="0.44"/>
<path d="M728.2 294.6C728.2 294.6 744.6 341.6 698.7 340.6L644 339C644 339 643.8 356.3 630.3 361L632.4 376.3C628.8 375.9 624.3 375.5 619.8 375.2C619.8 375.2 618 368.3 616.7 366.8C616.7 366.8 609 359.6 600.4 364.9C600.4 364.9 579.5 320.4 621.1 319.3C621.1 319.3 626.5 280.2 689.9 294.3C699.1 296.3 719.5 280.5 728.2 294.6Z" fill="#2A2E43" fill-opacity="0.8"/>
<path d="M685.8 468.4C685.8 468.4 686 531 609 464L513.1 501.3C495.9 509.1 483.9 525.1 481.2 543.8C481.2 543.8 474.3 589.5 465.7 643.8C464.6 650.5 463.8 658.3 463.2 665.1C462.7 670.5 521.7 664.1 521.3 669.5C516.3 733.5 508.3 841.5 508.3 841.5C638.3 862.5 738.5 831.9 738.5 831.9L735.5 711.9L780.5 732.9L820 584.7L802.2 555.8L772.2 507C765.1 495.4 753.9 486.9 740.8 483L685.8 468.4Z" fill="#1092A4"/>
<path d="M726.8 590.2C726.8 590.2 731.1 562 780.5 566.8C823.2 570.9 834.2 591.6 834.2 591.6L726.8 590.2Z" fill="#DBDCF1"/>
<path d="M722.6 587.5C722.6 586.1 730.9 577.9 714.3 558.6C697.8 539.3 664.8 522.8 664.8 522.8L640 536.6L722.6 587.5Z" fill="#DBDCF1"/>
<path d="M645.6 522.8L637.2 523.9L637.3 529.7L714.4 580.6L740.5 587.5L836.9 588.9L834.9 586.3L741.9 582L715.8 575.1L645.6 522.8Z" fill="#D37146"/>
<path d="M841.8 604.8L823.3 753.7C818.8 753 813.9 751.6 808.5 749.4L730.3 706.5L798 590.5L834.1 619.2L841.8 604.8Z" fill="#E6A68A" fill-opacity="0.55"/>
<path d="M596.7 674.9L675.2 734.1L691.5 738.1L697.2 739.6L800.4 740.9L836.9 589L742.5 585.5L741.2 585.4L716.5 579.9L636.6 523.5L596.7 674.9Z" fill="#F1884F"/>
<path d="M695.1 608.1L640.1 571L635.9 588.9L688.2 628.8L695.1 608.1Z" fill="#D6E3F8"/>
<path d="M716.023 579.075L674.719 733.232L676.651 733.75L717.955 579.592L716.023 579.075Z" fill="#2A2E43" fill-opacity="0.8"/>
<path d="M741.123 584.678L695.715 740.182L697.635 740.742L743.043 585.238L741.123 584.678Z" fill="#2A2E43" fill-opacity="0.8"/>
<path d="M697.5 741.1L703.2 742.6L800.4 740.9L836.9 589L742.5 585.5L697.5 741.1Z" fill="#D37146"/>
<path d="M753.2 713.2L741.1 731.9L694.9 762.3C694.9 762.3 683 766.3 673.8 766.3L512.2 827.5C467.7 838.6 453.9 811.2 453.9 811.2C442 789.5 455 705.6 461.6 667.9C463.6 656.6 465 649.4 465 649.4H550.9L548.6 659.6L528.9 746.3L644.8 727.9L642.2 696.3L647.5 662C647.5 662 658.1 659.4 660.7 675.2L663.3 696.3L687.1 665.9L711.2 647C714.6 644.3 719.6 644.9 722.3 648.4C724.8 651.6 724.4 656.2 721.5 659L701.6 677.8L692.3 695L712.1 676.5L730.8 658.8C733.6 656.2 738 656.2 740.7 658.9C743.2 661.4 743.5 665.4 741.4 668.2L725.3 689.7L712.1 708.2L726.6 696.3L740.8 680C743 677.4 747 677.5 749.2 680.1C750.7 681.9 750.9 684.4 749.8 686.4L734.5 713.4L722.6 724L734.5 718.7L743.2 706.5C745.5 703.3 750.1 703.1 752.7 706.1C754.5 708 754.6 711 753.2 713.2Z" fill="#FCBB9D" fill-opacity="0.44"/>
<path d="M550.9 649.3L548.6 659.5L461.6 667.8C463.6 656.5 465 649.3 465 649.3H550.9Z" fill="#E6A68A" fill-opacity="0.55"/>
<path d="M685.3 449.9L685.8 466.7C652.1 456.5 642.1 424 642.1 424C652.6 441.7 672.3 447.8 687.8 449.7C686.2 449.9 685.3 449.9 685.3 449.9Z" fill="#E6A68A" fill-opacity="0.55"/>
<path d="M562.415 594.928L549.406 648.879L552.323 649.582L565.332 595.631L562.415 594.928Z" fill="#2A2E43" fill-opacity="0.8"/>
<path d="M672.5 415.5H702.5C702.5 415.5 693.5 433.5 672.5 415.5Z" fill="white"/>
</svg>
